<?xml version="1.0" standalone="no"?>
<!DOCTYPE svg PUBLIC "-//W3C//DTD SVG 1.1//EN" "http://www.w3.org/Graphics/SVG/1.1/DTD/svg11.dtd" >
<svg xmlns="http://www.w3.org/2000/svg">
<metadata></metadata>
<defs>
<font id="kansas_casualblack" horiz-adv-x="1324" >
<font-face units-per-em="2048" ascent="1638" descent="-410" />
<missing-glyph horiz-adv-x="600" />
<glyph horiz-adv-x="0" />
<glyph horiz-adv-x="682" />
<glyph unicode=" "  horiz-adv-x="600" />
<glyph unicode="&#x09;" horiz-adv-x="600" />
<glyph unicode="&#xa0;" horiz-adv-x="600" />
<glyph unicode="!" horiz-adv-x="748" d="M68 130q-34 109 27 219t171 144q91 28 170 -15t105 -133q33 -109 -27.5 -219t-173.5 -145q-89 -27 -166.5 16.5t-105.5 132.5zM193 670q26 170 64 471.5t61 445.5q43 19 118.5 21t152 -9.5t146.5 -37t102 -58.5q-39 -160 -131 -476.5t-126 -469.5q-89 -17 -213 18 t-174 95z" />
<glyph unicode="&#x22;" horiz-adv-x="811" d="M175 1137q23 157 69 452q78 0 176 -28t155 -78q-16 -62 -65 -219.5t-70 -236.5q-171 0 -265 110zM549 1137q23 157 69 452q78 0 176 -28t155 -78q-16 -62 -65 -219.5t-70 -236.5q-171 0 -265 110z" />
<glyph unicode="#" horiz-adv-x="1369" d="M3 335q8 104 53 206.5t105 152.5h118l51 208q-199 -2 -202 -2q8 105 53 207t106 153h134l79 317q59 12 183.5 -40.5t161.5 -120.5q-18 -67 -39 -154h131l82 331q36 7 107 -12.5t142 -60.5t97 -86q-1 -2 -8 -30t-17 -64.5t-20 -76.5h152q25 -48 -17 -180.5t-114 -173.5 h-108q-10 -38 -27.5 -109.5t-25.5 -103.5h166q25 -48 -16.5 -179.5t-114.5 -172.5l-120 -1q-75 -314 -81 -354q-124 6 -225 47t-130 113l48 191h-128q-80 -330 -86 -369q-122 6 -223 47.5t-132 112.5l52 206q-43 0 -89 -0.5t-69.5 -1t-28.5 -0.5zM665 695h131l52 212 l-131 -2q-16 -68 -52 -210z" />
<glyph unicode="$" horiz-adv-x="899" d="M8 365q0 84 62 179t131 130q8 -10 30.5 -38t28.5 -35.5t25 -29.5t25.5 -28.5t23 -22.5t26 -21.5t25 -15.5t28.5 -14t30 -9t35 -7q33 -5 43 1.5t2 17t-25 21.5q-55 36 -97.5 67t-91.5 76t-82 87.5t-59 97.5t-32.5 111t7.5 124.5t52 139.5q93 175 197.5 234.5t241.5 23.5 l65 158q30 0 69.5 -17.5t61.5 -44.5q-9 -25 -25.5 -71t-28.5 -80q104 -48 144.5 -106t35.5 -153q-4 -59 -27.5 -175t-31.5 -185q-93 0 -204.5 64.5t-135.5 123.5q5 15 21.5 48.5t22.5 63.5q11 56 -11 62q-23 6 -54 -49q-13 -23 -24 -54q-15 -39 -5 -77t37 -69.5t64 -66 t76 -66.5t73 -70.5t55 -77.5t22 -89t-26 -104q-18 -104 -83.5 -171.5t-152 -90t-186.5 -11.5l-71 -187q-38 0 -81.5 20t-53.5 51q24 65 52 154q-157 64 -224 181z" />
<glyph unicode="%" horiz-adv-x="1936" d="M121 967.5q-1 78.5 17 191.5q22 118 58 206t90 149.5t129.5 85.5t168.5 6q343 -65 209 -566q-63 -236 -171 -322t-285 -30q-70 22 -114.5 55.5t-72.5 89.5t-29 134.5zM370 60q89 165 472.5 790t446.5 739q90 16 204.5 2.5t184.5 -58.5q-105 -165 -495 -810.5t-442 -730.5 q-86 -18 -206.5 0t-164.5 68zM423 919q13 -7 27 10t27.5 54.5t23 70t21.5 78.5q12 47 18.5 76.5t12.5 72.5t-1.5 61.5t-28.5 10.5q-52 -19 -93 -207q-46 -207 -7 -227zM1224 264.5q-1 78.5 17 191.5q22 118 58.5 206t90.5 149t129.5 85t168.5 6q342 -65 208 -565 q-63 -236 -171 -322t-285 -30q-70 22 -114.5 55.5t-72.5 89.5t-29 134.5zM1526 216q13 -7 27 10t27.5 54.5t23 70t21.5 78.5q12 47 18.5 76.5t12.5 72.5t-1.5 61.5t-28.5 10.5q-52 -19 -93 -208q-46 -206 -7 -226z" />
<glyph unicode="&#x26;" horiz-adv-x="1525" d="M31 472q20 134 96.5 223.5t197.5 157.5q-84 213 -36 398q34 131 123.5 223.5t218 127t287.5 -2.5q186 -47 268 -176.5t41 -309.5q-14 -63 -41 -117t-60 -94t-76.5 -75t-84.5 -59.5t-91 -47.5q48 -57 131 -140q93 126 131 262q80 0 203 -72t159 -154q-61 -170 -178 -306 q103 -80 202 -153q-12 -82 -118 -156t-218 -83q-104 76 -184 141q-197 -98 -418 -97q-117 1 -223.5 37t-186 99.5t-120 161t-23.5 212.5zM483 467q0 -55 44 -87.5t112 -32.5q2 0 38 3q-94 98 -166 191q-28 -34 -28 -74zM692 1038q78 49 100 106q15 34 10 65.5t-29 37.5 q-28 7 -50 -26t-31 -75q-10 -51 0 -108z" />
<glyph unicode="'" horiz-adv-x="436" d="M175 1137q23 157 69 452q78 0 176 -28t155 -78q-16 -62 -65 -219.5t-70 -236.5q-171 0 -265 110z" />
<glyph unicode="(" horiz-adv-x="705" d="M94 821q63 489 278 721.5t536 172.5q7 -104 -17.5 -207.5t-71.5 -183.5q-42 3 -79 -36t-67 -115.5t-54 -162.5t-48 -203q-15 -72 -25 -130.5t-18 -123t-7 -114t9.5 -92t29.5 -69.5t54 -35q3 -108 -21 -211t-76 -156q-529 120 -423 945z" />
<glyph unicode=")" horiz-adv-x="701" d="M-83 -139q-14 206 86 377q42 -3 79 36.5t68 117.5t55.5 167.5t48.5 209.5q16 79 26.5 142.5t15 135t-2 122t-29 88t-61.5 47.5q-3 110 27.5 229.5t80.5 179.5q125 -19 215 -82t139.5 -152.5t72 -208t19.5 -241.5t-25 -260q-77 -474 -287 -710.5t-528 -197.5z" />
<glyph unicode="*" horiz-adv-x="1047" d="M141 1331q25 75 81.5 158.5t121.5 122.5q78 -50 236 -162q10 63 26.5 168t21.5 136q77 0 175 -28t155 -78q-15 -58 -79 -266q164 27 284 45q15 -45 23.5 -104.5t4 -127t-25.5 -115.5q-49 -3 -249 -5l127 -249q-64 -46 -159.5 -81t-170.5 -27q-28 69 -95 266l-222 -222 q-63 44 -126 125t-79 155q35 28 208 158q-60 30 -156 79t-102 52z" />
<glyph unicode="+" horiz-adv-x="892" d="M72 631q-17 90 11 204t84 169l184 1l65 239q68 31 200.5 9.5t174.5 -71.5l-47 -176l201 2q14 -23 11.5 -75.5t-13 -108.5t-35 -108.5t-55.5 -75.5l-206 -1q-16 -62 -35 -137.5t-30 -119t-14 -56.5q-99 -18 -215.5 17.5t-153.5 105.5l51 186q-120 -1 -178 -4z" />
<glyph unicode="," horiz-adv-x="569" d="M-79 -253q6 48 31 89q66 6 122.5 45t87.5 101q-65 14 -112.5 61t-64.5 118q-20 85 12 161t106.5 118.5t168.5 29.5q115 -15 179.5 -104.5t50.5 -231.5q-9 -94 -50 -178t-111 -150.5t-176.5 -105.5t-235.5 -39q-14 38 -8 86z" />
<glyph unicode="-" horiz-adv-x="673" d="M52 568q-10 102 28.5 222.5t98.5 177.5l534 4q16 -24 16 -80t-12.5 -117t-40.5 -118t-64 -79q-80 0 -292.5 -3.5t-267.5 -6.5z" />
<glyph unicode="." horiz-adv-x="542" d="M7.5 260.5q17.5 67.5 69.5 123t121 76.5q84 25 155 -14t98 -122q34 -104 -23 -207t-163 -136q-84 -26 -157.5 15t-99.5 126q-18 71 -0.5 138.5z" />
<glyph unicode="/" horiz-adv-x="942" d="M-183 -48q94 180 485.5 886t427.5 773q52 10 127.5 4t146.5 -20t132 -43t85 -65q-106 -164 -535 -887t-485 -813q-62 -3 -144 17.5t-152.5 61t-87.5 86.5z" />
<glyph unicode="0" horiz-adv-x="1288" d="M62.5 427q-14.5 167 28.5 396q174 915 810 791q139 -27 234 -90.5t144.5 -153.5t64 -211t-2 -254t-60.5 -291q-25 -90 -52.5 -166.5t-68 -158t-87.5 -142.5t-111.5 -111.5t-138.5 -74.5t-170 -21.5t-204 37.5q-184 59 -278 171t-108.5 279zM588 800q-94 -409 5 -450 q30 -12 60 18t58 95.5t50.5 134t46.5 158.5q20 73 33 131t22 110.5t10 90t-5 65.5t-21 41.5t-39 13.5q-125 0 -220 -408z" />
<glyph unicode="1" horiz-adv-x="850" d="M97 1143q145 129 235 227.5t149 213.5v3q116 16 248.5 -14t204.5 -103q-41 -215 -147.5 -777t-135.5 -711q-70 -10 -166 5t-179.5 57.5t-97.5 101.5q29 157 159 841l-1 -1q-88 19 -148.5 57t-120.5 100z" />
<glyph unicode="2" horiz-adv-x="1176" d="M31 332q69 75 193 188t218 197t179 184t109 176q20 64 19 90.5t-25 29.5q-39 6 -73.5 -39.5t-66.5 -164.5q-104 -10 -239.5 27t-212.5 120q32 94 69.5 168t86 134.5t107.5 99t130 58t157.5 14.5t187.5 -33q233 -65 324.5 -192.5t45.5 -344.5q-16 -75 -51.5 -146 t-78 -126.5t-105 -114.5t-117.5 -102.5t-132 -98.5l349 1q12 -21 14.5 -67.5t-5.5 -103.5t-23.5 -113.5t-42 -104t-57.5 -68.5q-108 0 -410.5 -4t-364.5 -7q-63 58 -120 159t-65 184z" />
<glyph unicode="3" horiz-adv-x="1246" d="M57 423q64 68 173.5 102t206.5 7q11 -79 46 -119t105 -38q54 1 90.5 23t45.5 51q13 39 -11.5 75.5t-77.5 42.5l-251 2q-45 52 -58.5 160t7.5 198l291 -5q84 25 123 151q23 75 22 105.5t-26 33.5q-41 6 -76.5 -43t-71.5 -178q-102 -11 -221.5 23t-196.5 118 q34 98 71.5 174.5t84.5 139t103 102.5t124 60.5t150.5 16.5t178.5 -32q64 -19 112.5 -38t90.5 -43t70.5 -53.5t49 -66t29 -82.5t8 -102.5t-11.5 -126.5q-32 -202 -242 -295q52 -15 95.5 -43t79 -74t46.5 -106t-1 -140q-18 -97 -59.5 -176t-97 -131t-125.5 -89.5t-145 -52.5 t-154.5 -20t-154.5 8q-97 13 -176 49t-137 92.5t-87 138.5t-22 181z" />
<glyph unicode="4" horiz-adv-x="1381" d="M27 659q121 204 369.5 489t429.5 441v2q126 16 257 -13.5t203 -102.5q-61 -315 -146 -775l221 18q4 -89 -19 -189t-63 -167l-203 -6l-71 -374q-51 -7 -122 0.5t-140.5 26.5t-122.5 55t-64 81l37 199l-384 -11q-64 43 -122.5 144.5t-59.5 181.5zM441 646l212 16l53 281 q-123 -120 -265 -297z" />
<glyph unicode="5" horiz-adv-x="1211" d="M55 478q77 52 196 84t216 11q-8 -82 15.5 -133.5t74.5 -50.5q43 1 80 35.5t48 94.5q11 61 -11 99.5t-72 43.5q-43 6 -80 -19q-109 -14 -231 37t-186 150q93 302 172 735q120 17 250 -22q15 22 34 41l654 4q10 -21 11 -65.5t-8 -100t-25.5 -109.5t-43.5 -100t-59 -66 q-200 0 -429 -4q-12 -44 -35.5 -120t-26.5 -86q122 93 287 72q78 -10 141 -46.5t111 -104t61.5 -165.5t-8.5 -232q-15 -81 -45.5 -150.5t-69.5 -120t-88 -90.5t-99.5 -66.5t-105.5 -44t-104.5 -25t-98.5 -8.5q-88 -2 -172 18.5t-156 64t-122.5 104.5t-71.5 148t-3 187z" />
<glyph unicode="6" horiz-adv-x="1280" d="M109 844q97 448 309 641t510 130q259 -54 359 -244t22 -515q-93 -9 -247 29t-198 86q70 230 -33 244q-23 3 -45.5 -10.5t-50.5 -50.5t-60.5 -114.5t-66.5 -191.5q144 86 327 20q174 -61 253 -208t19 -330q-46 -141 -156 -240.5t-266.5 -131.5t-342.5 41 q-474 192 -333 845zM537 523q-15 -152 46 -179q35 -15 72.5 4t59.5 59q23 37 19 78.5t-39 66.5t-80.5 16.5t-77.5 -45.5z" />
<glyph unicode="7" horiz-adv-x="1063" d="M-30 35q93 426 274.5 712.5t413.5 404.5q-288 -34 -375 -23q-61 90 -78 227.5t23 251.5q159 -26 315.5 -34.5t256.5 -4t182 15.5q98 -67 154.5 -190.5t55.5 -221.5l1 -3q-297 -264 -457.5 -549.5t-219.5 -620.5q-131 -26 -304 -12.5t-242 47.5z" />
<glyph unicode="8" horiz-adv-x="1280" d="M40 530q46 258 330 381q-156 172 -78 392q49 134 163.5 224.5t269.5 110.5t334 -54q198 -86 270 -237.5t6 -319.5q-39 -97 -119 -157.5t-196 -102.5q135 -98 177.5 -238t-21.5 -287q-44 -99 -128 -167t-190 -96.5t-231 -19t-249 59.5q-188 76 -279 204t-59 307z M514.5 393q20.5 -47 80.5 -63q49 -12 90 6.5t56 74.5q25 92 -102 225q-99 -54 -124 -136q-21 -60 -0.5 -107zM739 1219q-58 -71 23 -176q106 43 125 101q12 36 0.5 61.5t-35.5 39.5q-18 14 -54 8t-59 -34z" />
<glyph unicode="9" horiz-adv-x="1316" d="M77 366.5q-3 70.5 20 155.5q72 43 204 29t218 -77q-36 -104 37 -120q62 -14 121 64t107 220q-71 -58 -157 -77.5t-167.5 -2t-150.5 66.5q-97 69 -138 179t-25.5 236t81.5 254q54 103 126.5 174t149 106t161 46t161 0t151.5 -38q119 -43 201 -117.5t123.5 -165t53 -201.5 t-3 -223.5t-50.5 -234.5q-56 -186 -137 -322t-173 -211.5t-198 -110.5t-210 -29t-211 44q-69 24 -121 55.5t-92.5 75.5t-59 99t-21.5 125.5zM650.5 954.5q6.5 -40.5 29.5 -61.5q39 -30 94 -16t88 50q57 280 -26 310q-38 13 -84.5 -21.5t-74.5 -95.5q-18 -38 -25.5 -81.5 t-1 -84z" />
<glyph unicode=":" horiz-adv-x="719" d="M77.5 260.5q17.5 67.5 69.5 123t121 76.5q84 25 154.5 -14t97.5 -122q34 -104 -22.5 -207t-162.5 -136q-84 -26 -157.5 15t-99.5 126q-18 71 -0.5 138.5zM219.5 1012.5q17.5 67.5 69.5 123t121 76.5q84 25 154.5 -14t97.5 -122q34 -104 -22.5 -207t-162.5 -136 q-84 -26 -157.5 15t-99.5 126q-18 71 -0.5 138.5z" />
<glyph unicode=";" horiz-adv-x="675" d="M-19 -253q6 48 31 89q66 6 123 45t88 101q-65 14 -113 61t-65 118q-20 85 12 161t106.5 118.5t168.5 29.5q116 -15 180.5 -104.5t50.5 -231.5q-9 -94 -50.5 -178t-111.5 -150.5t-176.5 -105.5t-235.5 -39q-14 38 -8 86zM175.5 1000.5q17.5 67.5 69.5 123t121 76.5 q84 25 154.5 -14t97.5 -122q34 -104 -22.5 -207t-162.5 -136q-84 -26 -157.5 15t-99.5 126q-18 71 -0.5 138.5z" />
<glyph unicode="&#x3c;" horiz-adv-x="1361" d="M253 522v277l1011 510v-289l-774 -356v-6l774 -356v-292z" />
<glyph unicode="=" horiz-adv-x="1317" d="M206 266v261h1015v-261h-1015zM206 791v263h1015v-263h-1015z" />
<glyph unicode="&#x3e;" horiz-adv-x="1361" d="M253 1020v289l1011 -512v-277l-1010 -510v292l774 357v6z" />
<glyph unicode="?" horiz-adv-x="1037" d="M34.5 260.5q17.5 67.5 69.5 123t121 76.5q84 25 155 -14t98 -122q34 -104 -23 -207t-163 -136q-84 -26 -157.5 15t-99.5 126q-18 71 -0.5 138.5zM152 1162q28 86 61 154.5t75 126.5t93 95.5t113 58t138.5 17.5t164.5 -30q136 -42 209 -100.5t101 -154.5t13 -249 q-10 -103 -42.5 -179t-77.5 -117.5t-97.5 -69.5t-105 -46t-97.5 -36.5t-78.5 -49.5t-43.5 -78q-57 -24 -187.5 -8t-166.5 46q-3 94 17 165.5t56 113t80.5 71.5t91.5 49t87 35.5t70 41t38 57.5q35 143 -6 154q-34 8 -64.5 -40.5t-55.5 -154.5q-93 -12 -204.5 19.5 t-181.5 108.5z" />
<glyph unicode="@" horiz-adv-x="2071" d="M79 496q-23 186 26 390q32 138 88.5 257t131 210t167 163t195.5 116.5t216.5 71t229.5 25t235 -20.5q156 -28 282 -90t211 -147t142 -188.5t79.5 -218t19 -232t-34.5 -234.5q-26 -100 -68.5 -182.5t-94 -138.5t-112 -96.5t-123 -56t-128 -18.5t-125.5 16 q-215 58 -277 258q-61 -57 -136.5 -73.5t-157.5 11.5q-86 30 -139.5 101t-70 160.5t-3.5 191.5q28 215 159.5 331t310.5 83q144 -27 191 -139q16 27 46 68q82 3 172 -32t136 -84q-51 -49 -92.5 -132.5t-61 -162.5t-17 -143.5t32.5 -80.5q39 -21 90 38t83 175 q36 120 24 232.5t-60.5 202.5t-143.5 154t-225 87q-267 49 -473.5 -94.5t-283.5 -429.5q-48 -192 -19 -346.5t125.5 -260.5t240.5 -141q151 -36 300 21q49 -43 77 -177t5 -187q-263 -71 -516 -6q-189 48 -331.5 156t-221 257.5t-101.5 335.5zM1008 751q-31 -138 24 -152 q29 -8 56.5 17.5t35.5 68.5l15 78q11 45 1.5 84.5t-44.5 39.5q-58 0 -88 -136z" />
<glyph unicode="A" d="M-56 120q61 218 158.5 462.5t247 523t311.5 483.5q74 18 163 18q25 1 52 -1q120 -6 212 -44q156 -605 163 -1520q-39 -34 -137 -46q-58 -7 -116 -7q-40 -1 -80 3q-98 8 -151 31q5 138 9 272q-155 0 -291 -4q-49 -167 -85 -295q-50 -5 -97 -5q-93 -1 -173 19 q-121 30 -186 110zM588 614l193 2v86q0 211 -8 394q-90 -204 -185 -482z" />
<glyph unicode="B" horiz-adv-x="1355" d="M161 183q89 503 198 975q-59 -31 -136 -85q-43 79 -45 185v10q0 101 40 189q272 157 544 173q31 2 61 2q70 0 133 -10q90 -14 158 -44.5t121.5 -74t86.5 -95.5q33 -54 51 -112q17 -55 17 -113v-6q-1 -61 -18 -120q-52 -169 -229 -243q111 -56 165 -170q34 -72 34 -164 q0 -53 -12 -114q-26 -134 -99 -230.5t-170 -143t-210 -60.5q-47 -6 -94 -6q-65 0 -128 12q-109 20 -202 65q-93 17 -165.5 65t-100.5 115zM603 333q46 -50 112 -56q8 -1 17 -1q57 0 108 36q59 42 82 121q11 34 11 63q0 28 -10 51q-19 47 -59 72q-36 23 -84 23h-10 q-54 -2 -101 -36l-4 8q-58 -261 -62 -281zM736 894q160 29 207 150q17 40 17 75q0 44 -26 80q-48 66 -179 71h-10q45 -27 80 -62q-50 -163 -89 -314z" />
<glyph unicode="C" horiz-adv-x="1238" d="M72 622q4 96 22 209q72 443 282 647q159 155 376 155q68 0 141 -15q129 -27 216.5 -90.5t130.5 -147.5t56 -198q7 -58 6 -117q0 -56 -6 -112q-12 -115 -44 -253q-38 -7 -80 -7q-79 0 -176 24q-149 37 -210 101q25 71 41.5 134t24.5 124q3 22 2 41q0 34 -8 59 q-14 39 -50 45q-6 1 -11 1q-27 0 -53 -24q-30 -29 -56 -88.5t-47.5 -132.5t-42.5 -169q-29 -132 -39 -222q-5 -45 -5 -81.5t5 -65.5q10 -58 44 -73q12 -6 24 -6q23 0 45 20q34 30 55.5 79t36.5 106q13 2 28 2q80 0 198 -52q140 -61 188 -130q-61 -157 -141 -257 q-81 -99 -175 -139q-87 -37 -179 -37h-16q-101 4 -218 47q-107 39 -181.5 105t-114.5 144t-56 178q-13 82 -13 161q-1 18 0 35z" />
<glyph unicode="D" horiz-adv-x="1447" d="M178 1223v20q0 115 32 203q233 165 541 183q33 2 65 2q147 0 267 -38q146 -46 237 -138t137 -221q41 -115 41 -254v-34q-6 -158 -62 -333q-48 -151 -119.5 -269t-153.5 -191t-172.5 -120t-184.5 -61q-68 -11 -131 -11q-24 -1 -48 1q-86 6 -166 31q-93 14 -167 67.5 t-108 133.5q69 433 189 950q-77 -45 -155 -112q-39 64 -42 191zM666 367q26 -13 52 -13q64 0 134 74q99 104 153 319q28 113 28 199q1 102 -39 168q-74 120 -254 128q80 -37 126 -95q-108 -358 -200 -780z" />
<glyph unicode="E" horiz-adv-x="1116" d="M45 160q9 50 116.5 617t151.5 814q32 4 67 4q51 1 106 -9q92 -16 167 -57q24 36 46 56l500 4q12 -19 12 -63q-1 -10 -1 -22q-4 -61 -16.5 -126t-42.5 -126t-67 -85q-163 0 -393 -5l-42 -225l17 17l373 4q13 -24 13 -68q0 -52 -18 -133q-34 -148 -101 -193q-117 0 -355 -7 l-33 -180q15 22 37 44l447 1q10 -22 10 -61q1 -14 -1 -30q-4 -62 -17.5 -125.5t-42.5 -122.5t-65 -83q-58 0 -239 -4t-202 -4q-28 -3 -58 -3q-52 -1 -110 9q-92 16 -168.5 59.5t-90.5 102.5z" />
<glyph unicode="F" horiz-adv-x="1059" d="M45 160q11 60 117.5 624t151.5 807q32 4 67 4q51 1 106 -9q92 -16 168 -57q23 33 47 56l527 4q12 -19 12 -63q-1 -10 -1 -22q-4 -61 -16 -126t-41.5 -126t-65.5 -85q-180 0 -425 -5l-52 -279q19 26 36 41l373 4q12 -19 12 -63q-1 -10 -1 -22q-4 -61 -16 -125.5 t-41.5 -125.5t-65.5 -85q-141 0 -368 -9q-81 -436 -97 -516q-23 -3 -48 -3q-51 0 -113 12q-93 18 -172.5 64t-93.5 105z" />
<glyph unicode="G" horiz-adv-x="1347" d="M70 610q2 98 21 213q72 436 281 642q165 162 397 162q63 0 131 -12q273 -48 382 -236q70 -121 70 -280q0 -88 -21 -187q-66 -28 -220 -28h-27q-175 3 -246 31q49 134 49 219q0 10 -1 18q-6 89 -75 89q-39 0 -73 -33t-61.5 -97t-49.5 -136.5t-45 -173.5 q-19 -86 -29.5 -151.5t-12.5 -130.5v-13q0 -56 16 -95q17 -43 53 -59q20 -9 38 -9q27 0 53 19q42 30 74 101q-74 -1 -140 -10v21q0 102 26 196q30 103 84 152l668 4q12 -18 12 -60v-12q-2 -53 -12 -109.5t-34.5 -109.5t-55.5 -74q-42 -5 -124 -5h-50q43 -26 60 -52 q-28 -115 -83 -203t-128 -142t-161 -80q-73 -21 -151 -21h-33q-97 6 -197 41q-110 38 -188 101.5t-120.5 140t-60.5 174.5q-17 86 -17 172q0 12 1 23z" />
<glyph unicode="H" horiz-adv-x="1448" d="M33 472q0 117 40 230t100 170h85l134 719q44 6 89 6q83 1 168 -19q131 -30 203 -103q-59 -312 -113 -600l200 2l134 714q44 6 89 6q83 1 168 -19q131 -30 203 -103q-40 -207 -144.5 -767.5t-136.5 -725.5q-25 -3 -54 -3q-31 -1 -68 3q-71 8 -140.5 27t-122.5 55t-64 81 l65 353q-6 -9 -19 -16h-184q-36 -197 -94 -500q-25 -3 -54 -3q-31 -1 -68 3q-71 8 -140.5 27t-122.5 55t-64 81l61 330q-24 0 -150 -3z" />
<glyph unicode="I" horiz-adv-x="688" d="M42 145q11 61 119 632.5t152 813.5q44 6 89 6q83 1 168 -19q131 -30 203 -103q-40 -207 -144.5 -767.5t-136.5 -725.5q-28 -4 -60 -4q-50 0 -108 9q-98 15 -183 57t-99 101z" />
<glyph unicode="J" horiz-adv-x="1232" d="M42 391q-3 32 -3 65q0 58 10 118q15 95 52 211q52 31 159 35h28q92 0 176 -20q97 -23 124 -61q-16 -42 -25 -66t-22 -62.5t-19.5 -62t-14 -54.5t-7.5 -50.5t2 -39t11.5 -31.5t24.5 -17q23 -8 44 0.5t39.5 35t34 61t31.5 86t29 101t28 115.5q90 388 165 834q51 9 103 9 q82 0 166 -22q139 -36 194 -91q-138 -659 -188 -872q-44 -188 -110.5 -322.5t-143 -210t-168.5 -107.5q-74 -26 -149 -26q-19 0 -38 2q-94 8 -197 50q-108 43 -180 103t-109.5 130t-46.5 159z" />
<glyph unicode="K" horiz-adv-x="1290" d="M42 145q11 61 119 632.5t152 813.5q44 6 89 6q83 1 168 -19q131 -30 203 -103q-73 -377 -96 -504q241 324 381 633q135 -2 245.5 -39.5t173.5 -115.5q-77 -168 -223.5 -378.5t-333.5 -404.5h4q147 -346 381 -605q-58 -58 -215 -83q-85 -14 -156 -14q-59 0 -107 10 q-59 71 -128 215.5t-115 281.5l-92 -489q-28 -4 -60 -4q-50 0 -108 9q-98 15 -183 57t-99 101z" />
<glyph unicode="L" horiz-adv-x="1077" d="M45 160q11 60 117.5 624t151.5 807q33 4 68 4q83 -1 178 -25q134 -36 207 -109q-78 -405 -202 -1075q8 12 28 32l446 4q12 -19 12 -63q-1 -10 -1 -22q-4 -61 -16 -126t-41.5 -126t-65.5 -85q-210 0 -442 -8q-24 -3 -50 -3q-53 0 -116 11q-95 16 -177.5 59t-96.5 101z" />
<glyph unicode="M" horiz-adv-x="1757" d="M42 145q11 61 119 632.5t152 813.5q44 6 89 6q59 0 120 -10q131 -8 238 -59l5 -45l8 -8l-6 -28q15 -149 61 -457t59 -411q232 636 406 1014q55 7 110 7l84 -4q107 -2 202 -32.5t153 -88.5q-40 -207 -144.5 -767.5t-136.5 -725.5q-28 -4 -60 -4q-49 0 -107 9 q-98 15 -183.5 57t-99.5 101l108 577q-147 -379 -259 -722q-28 -4 -59 -4q-37 0 -78 6q-74 11 -138 36q-16 87 -45.5 256t-42.5 245l-105 -557q-28 -4 -60 -4q-50 0 -108 9q-98 15 -183 57t-99 101z" />
<glyph unicode="N" horiz-adv-x="1432" d="M45 160q11 60 117.5 624t151.5 807q30 4 63 5q76 0 162 -25q124 -35 197 -110q18 -505 156 -877q49 329 88 636.5t39 386.5q18 1 36 1q101 0 209 -42q128 -50 198 -141q2 -26 2 -58q0 -205 -78 -629q-90 -490 -194 -784q-24 -2 -48 -2q-60 0 -124 14q-88 20 -153 63 q-16 8 -25 16q-24 22 -35 36q-132 146 -235 488q-64 -423 -100 -587q-23 -3 -48 -3q-51 0 -113 12q-93 18 -172.5 64t-93.5 105z" />
<glyph unicode="O" horiz-adv-x="1321" d="M64 545q0 78 8 144t22 144q84 451 290 649q158 152 383 152q69 0 144 -15q139 -26 237.5 -91t151.5 -156q52 -92 70 -212q9 -63 10 -130q0 -59 -8 -122q-16 -133 -60 -284q-43 -144 -99 -257t-121 -190t-137.5 -127t-152.5 -70q-70 -18 -142 -18h-21q-83 3 -171 28 q-93 27 -163.5 70.5t-115.5 94.5t-73.5 117.5t-40 130.5t-11.5 142zM594 815q-46 -193 -46 -303q0 -119 54 -139q12 -3 25 -5q2 0 3 1q12 1 26 9q16 10 32 26.5t34.5 49t37 75t39.5 105t41 139.5q33 121 46 205q9 59 9 101q1 17 -1 31q-6 47 -21 69.5t-42 30.5q-13 5 -26 5 q-15 -1 -29 -7q-26 -12 -56.5 -51t-62.5 -125.5t-63 -216.5z" />
<glyph unicode="P" horiz-adv-x="1359" d="M172 112q10 70 22.5 142.5t22 126.5t26 133.5t24 117.5t28 128.5t26 116t30 131t29.5 125.5q-73 -36 -152 -93q-44 78 -48 204v24q0 111 38 196q112 67 258.5 115t308.5 55q23 1 45 1q94 0 177 -17q102 -21 175 -62.5t129 -99.5t89 -126q32 -68 48 -144q14 -67 15 -135 q0 -9 -1 -17q-2 -76 -20 -152q-23 -94 -68.5 -169.5t-107 -125.5t-131 -85.5t-150 -54t-152 -27t-148.5 -9.5q-33 -153 -84 -418q-44 -7 -89 -7q-78 0 -156 22q-122 36 -184 104zM758 1234q62 -30 112 -80q-50 -170 -108 -404q79 10 144 56t93 125q13 41 15 81q0 4 1 7 q0 37 -13 73q-14 40 -42.5 70t-80.5 50t-121 22z" />
<glyph unicode="Q" horiz-adv-x="1362" d="M70 615q2 98 23 207q83 446 311 656q177 163 415 163q70 0 145 -14q141 -26 238 -92.5t146 -159t63 -215.5q6 -55 6 -110q0 -72 -10 -147q-18 -133 -62 -287q-63 -215 -160 -369q142 -206 300 -298q-62 -71 -173 -109q-82 -27 -175 -27q-35 0 -72 4q-83 54 -173 171 q-90 -35 -188 -35q-114 0 -238 47q-108 41 -187 105.5t-124 142.5t-66 174q-19 87 -19 176v17zM530 610q-6 -41 -6 -78q0 -46 9 -86q17 -73 73 -92q16 -6 31 -6q23 0 46 12q-54 139 -81 278q59 44 132 67q53 17 107 17q18 0 37 -2l8 23q22 66 37.5 121.5t28.5 116t15 106.5 v20q0 35 -5 65q-7 38 -30 58.5t-61 20.5q-48 0 -91 -34t-79.5 -99.5t-64.5 -136t-58 -167.5q-35 -112 -48 -204z" />
<glyph unicode="R" horiz-adv-x="1385" d="M113 108q95 484 239 1025q-71 -34 -136 -79q-37 71 -37 194v6q1 128 41 223q112 67 261.5 110t303.5 47h28q109 0 207 -20q110 -23 198.5 -71.5t148 -121t81.5 -168.5q11 -47 11 -99q0 -55 -12 -115q-33 -165 -139.5 -282.5t-261.5 -181.5q134 -290 332 -516 q-59 -56 -216 -81q-84 -13 -152 -13q-61 0 -110 10q-61 73 -129.5 222.5t-111.5 288.5q-20 -83 -58.5 -250.5t-58.5 -250.5q-37 -5 -74 -5q-83 0 -172 25q-130 37 -183 103zM741 807q95 4 163 55.5t93 147.5q11 39 11 72q0 68 -44 110q-63 61 -187 61h-8q44 -24 87 -67 q-61 -179 -115 -379z" />
<glyph unicode="S" horiz-adv-x="1161" d="M-16 220q-1 107 77 227t166 163q91 -128 192.5 -204t183.5 -81q44 -3 58 15t-19 41q-185 129 -256 191q-195 168 -229 348q-7 40 -7 82q0 130 70 279q104 221 276 303q88 42 189 41q96 0 204 -38q195 -81 271 -159q71 -73 70 -195v-19q-3 -62 -35.5 -219t-42.5 -245 q-120 1 -263.5 81.5t-174.5 155.5q52 84 64 150q4 18 4 31q0 38 -29 45q-6 1 -11 1q-31 0 -67 -36q-28 -29 -43 -69q-10 -28 -10 -57q0 -37 17 -75q30 -67 66.5 -102.5t125.5 -109.5q61 -52 92 -80t75.5 -80.5t58.5 -94.5q13 -38 13 -92v-11q-2 -60 -34 -123 q-21 -120 -94 -202t-171 -116q-95 -33 -208 -33h-7q-116 1 -224.5 35.5t-202 100t-145.5 151.5z" />
<glyph unicode="T" horiz-adv-x="1239" d="M134 1154q0 117 40.5 242.5t109.5 185.5l1130 7q9 -23 9 -61q1 -60 -21 -156q-34 -158 -99 -205q-100 -4 -433 -6q57 -31 86 -59q-39 -204 -107.5 -576.5t-101.5 -543.5q-27 -4 -57 -4q-48 0 -108 10q-96 16 -179.5 57.5t-99.5 95.5q118 629 190 1015q-207 0 -359 -2z " />
<glyph unicode="U" horiz-adv-x="1287" d="M74 445l-2 50q0 61 6 123q8 88 30 201q95 516 156 770q56 13 118 13q60 0 128 -12q136 -24 230 -84q-121 -532 -179 -859q-29 -161 -30 -208q0 -3 1 -6q5 -50 41 -66q15 -6 29 -6q40 1 76 45q50 62 91 219q19 73 53 243.5t77.5 395t63.5 320.5q43 7 90 7q71 0 153 -16 q134 -26 222 -81q-111 -536 -172 -870q-31 -172 -89.5 -300.5t-134.5 -205.5q-76 -78 -172 -117q-93 -38 -194 -38h-6q-104 1 -218 36q-96 29 -165 71.5t-111.5 100t-65 123t-26.5 151.5z" />
<glyph unicode="V" horiz-adv-x="1288" d="M194 1561q95 44 243.5 44t254.5 -43q-2 -36 -7 -162.5t-7.5 -179.5t-6.5 -165.5t-5 -184.5q-1 -48 -1 -108q1 -30 1 -62q0 -96 2 -181q203 482 333 1069q77 15 157 15q56 1 114 -7q140 -18 211 -70q-95 -376 -285.5 -798t-427.5 -728q-76 -21 -168 -21q-23 -1 -47 1 q-120 6 -212 47q-149 604 -149 1467v67z" />
<glyph unicode="W" horiz-adv-x="1944" d="M213 1547q99 52 225 52q125 0 275 -51q-3 -69 -16.5 -291t-20.5 -390t-7 -326q135 373 299 1048q65 13 141 13q37 0 77 -3q120 -10 203 -51q-1 -31 -22 -414.5t-22 -591.5q116 319 278 991l15 60h23q137 1 249 -33q122 -36 189 -118q-78 -328 -259.5 -731.5 t-411.5 -710.5q-79 -25 -172 -25q-21 0 -43 1q-118 7 -193 51q-26 243 -37 482q-112 -289 -231 -509q-72 -21 -158 -21q-28 0 -56 2q-120 9 -205 50q-121 539 -121 1395q0 60 1 121z" />
<glyph unicode="X" horiz-adv-x="1252" d="M-91 86q287 267 525 561q-152 492 -209 922q77 37 219 39q9 0 19 1q130 0 225 -33q22 -236 71 -473q154 251 249 489q24 2 49 2q89 0 194 -20q135 -24 194 -78q-225 -467 -547 -886q32 -95 68.5 -190t90 -231t72.5 -184q-70 -31 -194 -31h-39q-152 6 -246 45 q-22 62 -74 204q-45 -52 -214 -241q-50 -11 -104 -11q-66 0 -140 16q-135 30 -209 99z" />
<glyph unicode="Y" horiz-adv-x="1246" d="M176 1567q105 36 234 36h7q133 -1 260 -42q9 -276 45 -542q105 214 246 588h31q133 0 248 -31q128 -35 199 -116q-80 -201 -240 -473.5t-361 -499.5q-19 -103 -47.5 -252.5t-47.5 -252.5q-25 -3 -53 -3q-52 0 -115 12q-97 19 -179 68t-97 112q12 68 38.5 196.5 t45.5 231.5q-89 249 -142 511t-72 457z" />
<glyph unicode="Z" horiz-adv-x="1165" d="M-20 335q141 120 347.5 358.5t359.5 472.5q-340 -2 -460 -10q0 127 42.5 247t107.5 182l581 4q6 -12 11 -42q105 0 202.5 -47t158.5 -144q-85 -209 -266.5 -452t-414.5 -485l353 3q12 -19 12 -63v-22q-4 -61 -16.5 -126t-42 -126t-65.5 -85q-98 0 -371.5 -4t-330.5 -7v1 l-1 -1q-64 23 -110 80.5t-67.5 123.5t-29.5 142z" />
<glyph unicode="[" horiz-adv-x="898" d="M-51 -341q10 55 168.5 869.5t203.5 1059.5q98 12 205 -12l12 12l466 4q16 -24 16 -80t-13 -117.5t-41 -118.5t-64 -79q-34 0 -196 -2l-240 -1248l259 2q16 -24 16 -80t-12.5 -117t-40.5 -118t-64 -79q-76 0 -240 -6q-34 -4 -95 -2l-20 -2v2q-108 6 -199.5 34.5 t-120.5 77.5z" />
<glyph unicode="\" horiz-adv-x="1482" d="M86 1487q24 36 85 65t132 43t146 20t127 -4q38 -69 429 -774.5t485 -884.5q-17 -46 -87.5 -86.5t-152.5 -61t-144 -17.5q-56 90 -485 813t-535 887z" />
<glyph unicode="]" horiz-adv-x="897" d="M-80 -375q0 56 12.5 117.5t40.5 118.5t64 79q22 0 91 1.5t105 1.5l241 1248l-260 -3q-16 24 -16 80t12.5 117t40.5 118t64 79q77 0 241 6q41 5 94 3l20 1v-1q108 -6 199.5 -34.5t120.5 -77.5q-10 -55 -168.5 -870t-203.5 -1060q-95 -12 -204 13l-13 -13l-465 -4 q-16 24 -16 80z" />
<glyph unicode="^" horiz-adv-x="1129" d="M109 1070q62 105 185 253.5t264 269.5q63 15 134 13.5t131.5 -13t117.5 -31.5q83 -135 161.5 -311t115.5 -295q-222 -73 -467 5q-4 18 -18.5 99t-27.5 137q-108 -155 -151 -237q-62 -3 -126 0t-120 12t-108.5 33.5t-90.5 64.5z" />
<glyph unicode="_" horiz-adv-x="854" d="M-158 -400q-17 92 12 219t86 181l767 4q28 -53 -2 -201t-93 -193q-93 0 -405 -3.5t-365 -6.5z" />
<glyph unicode="`" horiz-adv-x="648" d="M186 1469q60 53 150.5 80.5t193.5 26.5q7 -43 21.5 -91.5t41 -108t70.5 -122.5t100 -117q-39 -57 -120 -85t-158 -25q-112 92 -193 213.5t-106 228.5z" />
<glyph unicode="a" d="M-56 120q61 218 158.5 462.5t247 523t311.5 483.5q74 18 163 18q25 1 52 -1q120 -6 212 -44q156 -605 163 -1520q-39 -34 -137 -46q-58 -7 -116 -7q-40 -1 -80 3q-98 8 -151 31q5 138 9 272q-155 0 -291 -4q-49 -167 -85 -295q-50 -5 -97 -5q-93 -1 -173 19 q-121 30 -186 110zM588 614l193 2v86q0 211 -8 394q-90 -204 -185 -482z" />
<glyph unicode="b" horiz-adv-x="1355" d="M161 183q89 503 198 975q-59 -31 -136 -85q-43 79 -45 185v10q0 101 40 189q272 157 544 173q31 2 61 2q70 0 133 -10q90 -14 158 -44.5t121.5 -74t86.5 -95.5q33 -54 51 -112q17 -55 17 -113v-6q-1 -61 -18 -120q-52 -169 -229 -243q111 -56 165 -170q34 -72 34 -164 q0 -53 -12 -114q-26 -134 -99 -230.5t-170 -143t-210 -60.5q-47 -6 -94 -6q-65 0 -128 12q-109 20 -202 65q-93 17 -165.5 65t-100.5 115zM603 333q46 -50 112 -56q8 -1 17 -1q57 0 108 36q59 42 82 121q11 34 11 63q0 28 -10 51q-19 47 -59 72q-36 23 -84 23h-10 q-54 -2 -101 -36l-4 8q-58 -261 -62 -281zM736 894q160 29 207 150q17 40 17 75q0 44 -26 80q-48 66 -179 71h-10q45 -27 80 -62q-50 -163 -89 -314z" />
<glyph unicode="c" horiz-adv-x="1238" d="M72 622q4 96 22 209q72 443 282 647q159 155 376 155q68 0 141 -15q129 -27 216.5 -90.5t130.5 -147.5t56 -198q7 -58 6 -117q0 -56 -6 -112q-12 -115 -44 -253q-38 -7 -80 -7q-79 0 -176 24q-149 37 -210 101q25 71 41.5 134t24.5 124q3 22 2 41q0 34 -8 59 q-14 39 -50 45q-6 1 -11 1q-27 0 -53 -24q-30 -29 -56 -88.5t-47.5 -132.5t-42.5 -169q-29 -132 -39 -222q-5 -45 -5 -81.5t5 -65.5q10 -58 44 -73q12 -6 24 -6q23 0 45 20q34 30 55.5 79t36.5 106q13 2 28 2q80 0 198 -52q140 -61 188 -130q-61 -157 -141 -257 q-81 -99 -175 -139q-87 -37 -179 -37h-16q-101 4 -218 47q-107 39 -181.5 105t-114.5 144t-56 178q-13 82 -13 161q-1 18 0 35z" />
<glyph unicode="d" horiz-adv-x="1447" d="M178 1223v20q0 115 32 203q233 165 541 183q33 2 65 2q147 0 267 -38q146 -46 237 -138t137 -221q41 -115 41 -254v-34q-6 -158 -62 -333q-48 -151 -119.5 -269t-153.5 -191t-172.5 -120t-184.5 -61q-68 -11 -131 -11q-24 -1 -48 1q-86 6 -166 31q-93 14 -167 67.5 t-108 133.5q69 433 189 950q-77 -45 -155 -112q-39 64 -42 191zM666 367q26 -13 52 -13q64 0 134 74q99 104 153 319q28 113 28 199q1 102 -39 168q-74 120 -254 128q80 -37 126 -95q-108 -358 -200 -780z" />
<glyph unicode="e" horiz-adv-x="1116" d="M45 160q9 50 116.5 617t151.5 814q32 4 67 4q51 1 106 -9q92 -16 167 -57q24 36 46 56l500 4q12 -19 12 -63q-1 -10 -1 -22q-4 -61 -16.5 -126t-42.5 -126t-67 -85q-163 0 -393 -5l-42 -225l17 17l373 4q13 -24 13 -68q0 -52 -18 -133q-34 -148 -101 -193q-117 0 -355 -7 l-33 -180q15 22 37 44l447 1q10 -22 10 -61q1 -14 -1 -30q-4 -62 -17.5 -125.5t-42.5 -122.5t-65 -83q-58 0 -239 -4t-202 -4q-28 -3 -58 -3q-52 -1 -110 9q-92 16 -168.5 59.5t-90.5 102.5z" />
<glyph unicode="f" horiz-adv-x="1059" d="M45 160q11 60 117.5 624t151.5 807q32 4 67 4q51 0 106 -9q92 -17 168 -57q23 33 47 56l527 4q12 -19 12 -63q0 -10 -1 -22q-3 -61 -15.5 -126t-42 -126t-65.5 -85q-180 0 -425 -5l-52 -279q19 26 36 41l373 4q12 -19 12 -63q0 -10 -1 -22q-3 -61 -15.5 -125.5 t-42 -125.5t-65.5 -85q-141 0 -368 -9q-81 -436 -97 -516q-23 -3 -48 -3q-51 0 -113 12q-93 18 -172.5 64t-93.5 105z" />
<glyph unicode="g" horiz-adv-x="1347" d="M70 610q2 98 21 213q72 436 281 642q165 162 397 162q63 0 131 -12q273 -48 382 -236q70 -121 70 -280q0 -88 -21 -187q-66 -28 -220 -28h-27q-175 3 -246 31q49 134 49 219q0 10 -1 18q-6 89 -75 89q-39 0 -73 -33t-61.5 -97t-49.5 -136.5t-45 -173.5 q-19 -86 -29.5 -151.5t-12.5 -130.5v-13q0 -56 16 -95q17 -43 53 -59q20 -9 38 -9q27 0 53 19q42 30 74 101q-74 -1 -140 -10v21q0 102 26 196q30 103 84 152l668 4q12 -18 12 -60v-12q-2 -53 -12 -109.5t-34.5 -109.5t-55.5 -74q-42 -5 -124 -5h-50q43 -26 60 -52 q-28 -115 -83 -203t-128 -142t-161 -80q-73 -21 -151 -21h-33q-97 6 -197 41q-110 38 -188 101.5t-120.5 140t-60.5 174.5q-17 86 -17 172q0 12 1 23z" />
<glyph unicode="h" horiz-adv-x="1448" d="M33 472q0 117 40 230t100 170h85l134 719q44 6 89 6q83 1 168 -19q131 -30 203 -103q-59 -312 -113 -600l200 2l134 714q44 6 89 6q83 1 168 -19q131 -30 203 -103q-40 -207 -144.5 -767.5t-136.5 -725.5q-25 -3 -54 -3q-31 -1 -68 3q-71 8 -140.5 27t-122.5 55t-64 81 l65 353q-6 -9 -19 -16h-184q-36 -197 -94 -500q-25 -3 -54 -3q-31 -1 -68 3q-71 8 -140.5 27t-122.5 55t-64 81l61 330q-24 0 -150 -3z" />
<glyph unicode="i" horiz-adv-x="688" d="M42 145q11 61 119 632.5t152 813.5q44 6 89 6q83 1 168 -19q131 -30 203 -103q-40 -207 -144.5 -767.5t-136.5 -725.5q-28 -4 -60 -4q-50 0 -108 9q-98 15 -183 57t-99 101z" />
<glyph unicode="j" horiz-adv-x="1232" d="M42 391q-3 32 -3 65q0 58 10 118q15 95 52 211q52 31 159 35h28q92 0 176 -20q97 -23 124 -61q-16 -42 -25 -66t-22 -62.5t-19.5 -62t-14 -54.5t-7.5 -50.5t2 -39t11.5 -31.5t24.5 -17q23 -8 44 0.5t39.5 35t34 61t31.5 86t29 101t28 115.5q90 388 165 834q51 9 103 9 q82 0 166 -22q139 -36 194 -91q-138 -659 -188 -872q-44 -188 -110.5 -322.5t-143 -210t-168.5 -107.5q-74 -26 -149 -26q-19 0 -38 2q-94 8 -197 50q-108 43 -180 103t-109.5 130t-46.5 159z" />
<glyph unicode="k" horiz-adv-x="1290" d="M42 145q11 61 119 632.5t152 813.5q44 6 89 6q83 1 168 -19q131 -30 203 -103q-73 -377 -96 -504q241 324 381 633q135 -2 245.5 -39.5t173.5 -115.5q-77 -168 -223.5 -378.5t-333.5 -404.5h4q147 -346 381 -605q-58 -58 -215 -83q-85 -14 -156 -14q-59 0 -107 10 q-59 71 -128 215.5t-115 281.5l-92 -489q-28 -4 -60 -4q-50 0 -108 9q-98 15 -183 57t-99 101z" />
<glyph unicode="l" horiz-adv-x="1077" d="M45 160q11 60 117.5 624t151.5 807q33 4 68 4q83 -1 178 -25q134 -36 207 -109q-78 -405 -202 -1075q8 12 28 32l446 4q12 -19 12 -63q-1 -10 -1 -22q-4 -61 -16 -126t-41.5 -126t-65.5 -85q-210 0 -442 -8q-24 -3 -50 -3q-53 0 -116 11q-95 16 -177.5 59t-96.5 101z" />
<glyph unicode="m" horiz-adv-x="1757" d="M42 145q11 61 119 632.5t152 813.5q44 6 89 6q59 0 120 -10q131 -8 238 -59l5 -45l8 -8l-6 -28q15 -149 61 -457t59 -411q232 636 406 1014q55 7 110 7l84 -4q107 -2 202 -32.5t153 -88.5q-40 -207 -144.5 -767.5t-136.5 -725.5q-28 -4 -60 -4q-49 0 -107 9 q-98 15 -183.5 57t-99.5 101l108 577q-147 -379 -259 -722q-28 -4 -59 -4q-37 0 -78 6q-74 11 -138 36q-16 87 -45.5 256t-42.5 245l-105 -557q-28 -4 -60 -4q-50 0 -108 9q-98 15 -183 57t-99 101z" />
<glyph unicode="n" horiz-adv-x="1432" d="M45 160q11 60 117.5 624t151.5 807q30 4 63 5q76 0 162 -25q124 -35 197 -110q18 -505 156 -877q49 329 88 636.5t39 386.5q18 1 36 1q101 0 209 -42q128 -50 198 -141q2 -26 2 -58q0 -205 -78 -629q-90 -490 -194 -784q-24 -2 -48 -2q-60 0 -124 14q-88 20 -153 63 q-16 8 -25 16q-24 22 -35 36q-132 146 -235 488q-64 -423 -100 -587q-23 -3 -48 -3q-51 0 -113 12q-93 18 -172.5 64t-93.5 105z" />
<glyph unicode="o" horiz-adv-x="1321" d="M64 545q0 78 8 144t22 144q84 451 290 649q158 152 383 152q69 0 144 -15q139 -26 237.5 -91t151.5 -156q52 -92 70 -212q9 -63 10 -130q0 -59 -8 -122q-16 -133 -60 -284q-43 -144 -99 -257t-121 -190t-137.5 -127t-152.5 -70q-70 -18 -142 -18h-21q-83 3 -171 28 q-93 27 -163.5 70.5t-115.5 94.5t-73.5 117.5t-40 130.5t-11.5 142zM594 815q-46 -193 -46 -303q0 -119 54 -139q12 -3 25 -5q2 0 3 1q12 1 26 9q16 10 32 26.5t34.5 49t37 75t39.5 105t41 139.5q33 121 46 205q9 59 9 101q1 17 -1 31q-6 47 -21 69.5t-42 30.5q-13 5 -26 5 q-15 -1 -29 -7q-26 -12 -56.5 -51t-62.5 -125.5t-63 -216.5z" />
<glyph unicode="p" horiz-adv-x="1359" d="M172 112q10 70 22.5 142.5t22 126.5t26 133.5t24 117.5t28 128.5t26 116t30 131t29.5 125.5q-73 -36 -152 -93q-43 79 -48 204v24q0 111 38 196q112 67 258.5 115t308.5 55q23 1 45 1q95 0 177 -17q102 -21 175 -62.5t129 -99.5t89 -126t48 -144q14 -67 14 -135v-17 q-2 -77 -20 -152q-23 -94 -68.5 -169.5t-107 -125.5t-131 -85.5t-150 -54t-152 -27t-148.5 -9.5q-33 -153 -84 -418q-44 -7 -89 -7q-78 0 -156 22q-123 36 -184 104zM758 1234q62 -30 112 -80q-50 -170 -108 -404q79 10 144 56t93 125q14 40 15 81q1 3 1 7q0 37 -13 73 q-14 39 -42.5 69.5t-80.5 50.5t-121 22z" />
<glyph unicode="q" horiz-adv-x="1362" d="M70 615q2 98 23 207q83 446 311 656q177 163 415 163q70 0 145 -14q141 -26 238 -92.5t146 -159t63 -215.5q6 -55 6 -110q0 -72 -10 -147q-18 -133 -62 -287q-63 -215 -160 -369q142 -206 300 -298q-62 -71 -173 -109q-82 -27 -175 -27q-35 0 -72 4q-83 54 -173 171 q-90 -35 -188 -35q-114 0 -238 47q-108 41 -187 105.5t-124 142.5t-66 174q-19 87 -19 176v17zM530 610q-6 -41 -6 -78q0 -46 9 -86q17 -73 73 -92q16 -6 31 -6q23 0 46 12q-54 139 -81 278q59 44 132 67q53 17 107 17q18 0 37 -2l8 23q22 66 37.5 121.5t28.5 116t15 106.5 v20q0 35 -5 65q-7 38 -30 58.5t-61 20.5q-48 0 -91 -34t-79.5 -99.5t-64.5 -136t-58 -167.5q-35 -112 -48 -204z" />
<glyph unicode="r" horiz-adv-x="1385" d="M113 108q95 484 239 1025q-71 -34 -136 -79q-37 71 -37 194v6q1 128 41 223q112 67 261.5 110t303.5 47h28q109 0 207 -20q110 -23 198.5 -71.5t148 -121t81.5 -168.5q11 -47 11 -99q0 -55 -12 -115q-33 -165 -139.5 -282.5t-261.5 -181.5q134 -290 332 -516 q-59 -56 -216 -81q-84 -13 -152 -13q-61 0 -110 10q-61 73 -129.5 222.5t-111.5 288.5q-20 -83 -58.5 -250.5t-58.5 -250.5q-37 -5 -74 -5q-83 0 -172 25q-130 37 -183 103zM741 807q95 4 163 55.5t93 147.5q11 39 11 72q0 68 -44 110q-63 61 -187 61h-8q44 -24 87 -67 q-61 -179 -115 -379z" />
<glyph unicode="s" horiz-adv-x="1161" d="M-16 220q-1 107 77 227t166 163q91 -128 192.5 -204t183.5 -81q44 -3 58 15t-19 41q-185 129 -256 191q-195 168 -229 348q-7 40 -7 82q0 130 70 279q104 221 276 303q88 42 189 41q96 0 204 -38q195 -81 271 -159q71 -73 70 -195v-19q-3 -62 -35.5 -219t-42.5 -245 q-120 1 -263.5 81.5t-174.5 155.5q52 84 64 150q4 18 4 31q0 38 -29 45q-6 1 -11 1q-31 0 -67 -36q-28 -29 -43 -69q-10 -28 -10 -57q0 -37 17 -75q30 -67 66.5 -102.5t125.5 -109.5q61 -52 92 -80t75.5 -80.5t58.5 -94.5q13 -38 13 -92v-11q-2 -60 -34 -123 q-21 -120 -94 -202t-171 -116q-95 -33 -208 -33h-7q-116 1 -224.5 35.5t-202 100t-145.5 151.5z" />
<glyph unicode="t" horiz-adv-x="1239" d="M134 1154q0 117 40.5 242.5t109.5 185.5l1130 7q9 -23 9 -61q1 -60 -21 -156q-34 -158 -99 -205q-100 -4 -433 -6q57 -31 86 -59q-39 -204 -107.5 -576.5t-101.5 -543.5q-27 -4 -57 -4q-48 0 -108 10q-96 16 -179.5 57.5t-99.5 95.5q118 629 190 1015q-207 0 -359 -2z " />
<glyph unicode="u" horiz-adv-x="1287" d="M74 445l-2 50q0 61 6 123q8 88 30 201q95 516 156 770q56 13 118 13q60 0 128 -12q136 -24 230 -84q-121 -532 -179 -859q-29 -161 -30 -208q0 -3 1 -6q5 -50 41 -66q15 -6 29 -6q40 1 76 45q50 62 91 219q19 73 53 243.5t77.5 395t63.5 320.5q43 7 90 7q71 0 153 -16 q134 -26 222 -81q-111 -536 -172 -870q-31 -172 -89.5 -300.5t-134.5 -205.5q-76 -78 -172 -117q-93 -38 -194 -38h-6q-104 1 -218 36q-96 29 -165 71.5t-111.5 100t-65 123t-26.5 151.5z" />
<glyph unicode="v" horiz-adv-x="1288" d="M194 1561q95 44 243.5 44t254.5 -43q-2 -36 -7 -162.5t-7.5 -179.5t-6.5 -165.5t-5 -184.5q-1 -48 -1 -108q1 -30 1 -62q0 -96 2 -181q203 482 333 1069q77 15 157 15q56 1 114 -7q140 -18 211 -70q-95 -376 -285.5 -798t-427.5 -728q-76 -21 -168 -21q-23 -1 -47 1 q-120 6 -212 47q-149 604 -149 1467v67z" />
<glyph unicode="w" horiz-adv-x="1944" d="M213 1547q99 52 225 52q125 0 275 -51q-3 -69 -16.5 -291t-20.5 -390t-7 -326q135 373 299 1048q65 13 141 13q37 0 77 -3q120 -10 203 -51q-1 -31 -22 -414.5t-22 -591.5q116 319 278 991l15 60h23q137 1 249 -33q122 -36 189 -118q-78 -328 -259.5 -731.5 t-411.5 -710.5q-79 -25 -172 -25q-21 0 -43 1q-118 7 -193 51q-26 243 -37 482q-112 -289 -231 -509q-72 -21 -158 -21q-28 0 -56 2q-120 9 -205 50q-121 539 -121 1395q0 60 1 121z" />
<glyph unicode="x" horiz-adv-x="1252" d="M-91 86q287 267 525 561q-152 492 -209 922q77 37 219 39q9 0 19 1q130 0 225 -33q22 -236 71 -473q154 251 249 489q24 2 49 2q89 0 194 -20q135 -24 194 -78q-225 -467 -547 -886q32 -95 68.5 -190t90 -231t72.5 -184q-70 -31 -194 -31h-39q-152 6 -246 45 q-22 62 -74 204q-45 -52 -214 -241q-50 -11 -104 -11q-66 0 -140 16q-135 30 -209 99z" />
<glyph unicode="y" horiz-adv-x="1246" d="M176 1567q105 36 234 36h7q133 -1 260 -42q9 -276 45 -542q105 214 246 588h31q133 0 248 -31q128 -35 199 -116q-80 -201 -240 -473.5t-361 -499.5q-19 -103 -47.5 -252.5t-47.5 -252.5q-25 -3 -53 -3q-52 0 -115 12q-97 19 -179 68t-97 112q12 68 38.5 196.5 t45.5 231.5q-89 249 -142 511t-72 457z" />
<glyph unicode="z" horiz-adv-x="1165" d="M-20 335q141 120 347.5 358.5t359.5 472.5q-340 -2 -460 -10q0 127 42.5 247t107.5 182l581 4q6 -12 11 -42q105 0 202.5 -47t158.5 -144q-85 -209 -266.5 -452t-414.5 -485l353 3q12 -19 12 -63v-22q-4 -61 -16.5 -126t-42 -126t-65.5 -85q-98 0 -371.5 -4t-330.5 -7v1 l-1 -1q-64 23 -110 80.5t-67.5 123.5t-29.5 142z" />
<glyph unicode="{" horiz-adv-x="1045" d="M62.5 713q8.5 68 30 132t60 116.5t83.5 70.5v-1l2 1q81 -24 128 11.5t79 130.5q60 180 77 224q90 223 233 303q189 105 500 -8q6 -98 -41 -215.5t-108 -157.5q-29 18 -56.5 19t-62 -21t-71.5 -91t-72 -183q-87 -283 -335 -316q203 -150 149 -481q-12 -70 -16.5 -125.5 t-3.5 -94t8.5 -66.5t17.5 -43.5t26.5 -25t32 -12.5t36.5 -3q25 -106 12.5 -225t-46.5 -180q-96 12 -174 39t-132.5 57.5t-93.5 85t-63 92.5t-35 110.5t-16 110t0.5 119t8.5 109.5t14 108q6 43 8 63q16 131 -14 174.5t-158 54.5q-16 50 -7.5 118z" />
<glyph unicode="|" horiz-adv-x="669" d="M-20 -173q10 55 168 869.5t203 1059.5q111 15 236 -20t199 -110q-44 -229 -198 -1033.5t-167 -873.5q-113 -15 -257.5 14t-183.5 94z" />
<glyph unicode="}" horiz-adv-x="1045" d="M-154 -485q-6 98 41 215.5t108 157.5q29 -18 56.5 -19t62 21t71.5 91t72 183q87 284 334 317q-203 150 -149 480q12 70 16.5 125.5t3.5 94t-8.5 66.5t-17.5 43.5t-26.5 25t-32 12.5t-36.5 3q-25 106 -12.5 225.5t46.5 180.5q123 -15 216 -55t149.5 -86t90 -123 t47.5 -133.5t12.5 -152t-6.5 -143t-17 -140.5q-6 -42 -8 -62q-16 -131 14 -174.5t158 -54.5q16 -50 7 -118t-30 -132t-60 -116.5t-84 -70.5v1l-1 -1q-81 24 -128.5 -11.5t-79.5 -130.5q-5 -16 -16 -49q-21 -65 -32.5 -99.5t-38 -98t-48.5 -98.5t-60 -84.5t-77 -74t-96 -48.5 t-120 -25.5t-145 11.5t-176 47z" />
<glyph unicode="~" horiz-adv-x="1288" d="M130 616q51 107 152.5 184t213.5 77q50 0 93.5 -11.5t67.5 -24.5t56 -35q16 -11 44.5 -30t39 -25.5t28 -15.5t29.5 -12t25 -3q28 0 52.5 11.5t50.5 40.5t39.5 47t43.5 62l161 -148q-65 -119 -158.5 -192.5t-180.5 -73.5q-66 0 -118.5 19.5t-115.5 65.5q-41 30 -58 41.5 t-48.5 23.5t-63.5 12q-23 0 -44.5 -7.5t-36 -16.5t-33 -29t-27.5 -32t-27.5 -38.5t-25.5 -35.5z" />
<glyph unicode="&#xa1;" horiz-adv-x="748" d="M5 -66q39 159 131 476.5t126 470.5q89 17 213.5 -18.5t174.5 -95.5q-26 -169 -64.5 -470.5t-61.5 -445.5q-43 -19 -118.5 -21.5t-152 9.5t-146.5 37t-102 58zM302 1092q-33 110 27.5 220.5t172.5 144.5q89 27 166.5 -16.5t105.5 -132.5q34 -109 -27 -219t-171 -144 q-91 -28 -169.5 14.5t-104.5 132.5z" />
<glyph unicode="&#xa2;" horiz-adv-x="794" d="M77.5 739.5q0.5 66.5 13.5 145.5q39 241 161 367.5t300 100.5l79 195q30 0 69.5 -18t61.5 -45q-8 -24 -27 -76.5t-37 -104.5h-3q78 -47 115.5 -131t37 -183t-31.5 -217q-67 -12 -175.5 19t-139.5 74q2 8 7.5 28.5t9.5 38t9 40.5t7 41t1.5 34t-7 24t-17.5 7 q-30 -3 -62 -73.5t-49 -145.5q-53 -224 7 -242q24 -9 40.5 20.5t31.5 85.5q52 8 155 -40.5t126 -93.5q-127 -287 -354 -255l-85 -224q-38 0 -81.5 20t-53.5 51q27 76 67 202h8q-70 38 -112.5 94.5t-57 125.5t-14 135.5z" />
<glyph unicode="&#xa3;" horiz-adv-x="1376" d="M-44.5 116q13.5 71 44.5 137.5t77.5 121t91.5 73.5q92 -130 206 -148q36 -6 37.5 7t-19.5 48q-49 95 -75 201l-235 -2q-5 45 13 101t45 81h151q-13 273 114 539q229 476 645 316q136 -53 209.5 -102.5t107.5 -117.5t29 -167q-3 -72 -35 -229.5t-42 -242.5 q-80 0 -177.5 40.5t-170.5 97.5t-93 106q8 20 22 48.5t23.5 52t13.5 49.5q11 66 -20 64q-30 -3 -70 -62q-19 -27 -32 -58q-23 -52 -27 -113t3 -106t23 -115h275q16 -19 1 -88.5t-47 -90.5h-196q8 -76 -1 -138l464 3q15 -24 11.5 -85t-16 -126t-42 -126t-65.5 -85 q-205 -17 -336 -11q-98 5 -145 85q-79 -107 -217 -152.5t-282.5 -24.5t-256.5 96q-20 52 -6.5 123z" />
<glyph unicode="&#xa4;" horiz-adv-x="1307" d="M98 467q29 23 217 160q-46 107 -28 229q15 104 65 182q-135 137 -198 204q39 51 106.5 102t127.5 64q20 -25 44.5 -58t57.5 -79.5t51 -70.5q118 53 254 37q132 -15 224 -82q107 100 202 183q50 -39 98.5 -108t58.5 -132q-52 -38 -212 -145q30 -92 15 -197 q-16 -123 -85 -217q26 -27 92 -94.5t89 -92.5q-38 -50 -106 -101t-128 -64q-26 33 -81 108.5t-69 94.5q-93 -32 -209 -20q-114 12 -206 71q-153 -153 -214 -208q-51 39 -102 106.5t-64 127.5zM650 819q-5 -39 18 -68t61 -33q41 -4 69 18.5t32 62.5q5 40 -17.5 67.5 t-62.5 31.5t-67.5 -17.5t-32.5 -61.5z" />
<glyph unicode="&#xa5;" horiz-adv-x="1221" d="M102 311q-5 47 13 101.5t46 80.5h209l15 76q-56 0 -111 -0.5t-88 -0.5h-34q-5 45 12.5 101t44.5 81h132q-122 395 -165 817q108 37 241 36t260 -42q9 -276 45 -542q105 214 246 588q151 4 279 -31t199 -116q-58 -144 -160 -334.5t-233 -375.5h106q16 -19 1.5 -88.5 t-46.5 -90.5h-198q-2 -2 -26.5 -32t-38.5 -45h260q8 -18 7 -52t-16.5 -74t-37.5 -54h-252q-13 -67 -62 -332q-72 -10 -168.5 9t-178.5 68t-97 112q4 20 12.5 67.5t14.5 74.5z" />
<glyph unicode="&#xa6;" horiz-adv-x="670" d="M-18 -158q0 -2 2 -4zM-18 -162q4 -2 20 66.5t36.5 174.5t41 219t36 212.5t18.5 143.5q116 16 238 -10.5t196 -97.5q-2 -91 -60.5 -419.5t-88.5 -440.5q-69 -11 -162.5 2t-176 53t-98.5 97zM186 907q0 -4 1 -5zM187 902q3 -2 19 66.5t36 174.5t40.5 219.5t36 213 t18.5 143.5q116 16 238 -10.5t196 -97.5q-2 -91 -60.5 -420t-87.5 -440q-69 -11 -162.5 1.5t-175.5 52.5t-98 97z" />
<glyph unicode="&#xa7;" horiz-adv-x="1077" d="M-31 145q0 84 62 179.5t130 130.5q8 -9 33.5 -41.5t31.5 -39.5l27 -31.5t28.5 -30.5t25.5 -23t29.5 -22t29 -14t35 -13t37.5 -7q33 -5 43.5 1.5t2.5 17t-25 21.5q-60 39 -112 79.5t-104 88.5t-87.5 98t-57 101.5t-19 105.5t32.5 105q102 173 227 189q-23 134 56 282 q102 191 220.5 246.5t273.5 -6.5q155 -60 213.5 -123t52.5 -173q-4 -59 -27.5 -175.5t-31.5 -185.5q-92 0 -204 65t-136 124q5 15 21.5 48.5t22.5 63.5q11 56 -11 62q-23 6 -54 -49q-13 -23 -24 -54q-15 -39 -5 -77t37.5 -69.5t64 -66t76 -66.5t73 -70.5t55 -77.5t22.5 -89 t-26 -104q-17 -99 -73 -162t-139 -87q-2 -48 -27 -97q-16 -94 -71.5 -158.5t-130 -91t-163.5 -26.5t-171.5 27t-153.5 77.5t-110 117.5zM442 735q-4 -19 4.5 -37.5t33 -41t42.5 -36t57 -41.5q41 -20 85 -25q33 -5 47 7t8.5 29.5t-21.5 27.5q-114 73 -190 144q-23 11 -43.5 1 t-22.5 -28z" />
<glyph unicode="&#xa8;" horiz-adv-x="768" d="M160 1289l45 300q186 -6 329 -106l-67 -302q-85 3 -166.5 31.5t-140.5 76.5zM569 1289l45 300q186 -6 329 -106l-66 -302q-85 3 -167 31.5t-141 76.5z" />
<glyph unicode="&#xa9;" horiz-adv-x="1903" d="M94 665q-15 172 38 371q109 424 404.5 617.5t720.5 118.5q423 -75 593.5 -351.5t66.5 -713.5q-40 -167 -107 -300.5t-154 -225.5t-192 -152t-224 -84.5t-246.5 -19t-261.5 41.5q-198 53 -337.5 152.5t-212.5 236.5t-88 309zM549 956q-67 -255 18 -437.5t295 -231.5 q218 -51 392 83.5t241 410.5q32 122 26 233.5t-42 199.5t-114.5 149t-190.5 83q-117 23 -221.5 -6.5t-182 -100t-134 -168t-87.5 -215.5zM684 890q54 250 169 352t297 62q344 -77 221 -519q-68 -11 -175 19.5t-137 73.5q72 145 22 157q-46 10 -87 -167q-10 -41 -15 -69.5 t-7.5 -56t2.5 -43t17 -19.5q18 -5 32.5 18.5t20.5 64.5q35 7 96.5 -12.5t115.5 -54.5t66 -67q-34 -79 -83.5 -132t-105.5 -74.5t-116 -20t-120 27.5q-286 121 -213 460z" />
<glyph unicode="&#xab;" horiz-adv-x="1252" d="M35 547q-2 24 3 44q35 107 134.5 259t183.5 214q130 -19 207 -55t122 -100q-49 -51 -118.5 -177.5t-96.5 -205.5q0 -73 39 -225.5t77 -218.5q-60 -52 -143.5 -68t-213.5 -2q-67 81 -126.5 251.5t-67.5 283.5zM623 547q-2 27 2 44q35 107 134.5 259t183.5 214 q130 -19 207 -55t122 -100q-49 -51 -118.5 -177.5t-96.5 -205.5q0 -73 39 -225.5t77 -218.5q-60 -52 -143.5 -68t-213.5 -2q-67 81 -126 251.5t-67 283.5z" />
<glyph unicode="&#xac;" horiz-adv-x="1306" d="M197 737v262h1015v-701h-263v439h-752z" />
<glyph unicode="&#xad;" horiz-adv-x="673" d="M52 568q-10 102 28.5 222.5t98.5 177.5l534 4q16 -24 16 -80t-12.5 -117t-40.5 -118t-64 -79q-80 0 -292.5 -3.5t-267.5 -6.5z" />
<glyph unicode="&#xae;" horiz-adv-x="1903" d="M94 665q-15 172 38 371q109 424 404.5 617.5t720.5 118.5q423 -75 593.5 -351.5t66.5 -713.5q-40 -167 -107 -300.5t-154 -225.5t-192 -152t-224 -84.5t-246.5 -19t-261.5 41.5q-198 53 -337.5 152.5t-212.5 236.5t-88 309zM549 956q-67 -255 18 -437.5t295 -231.5 q128 -30 244 5.5t206 130.5q-56 -17 -130 -20t-121 9q-19 27 -55 99.5t-54 132.5q-32 -128 -55 -234q-61 -8 -117.5 -7t-104 23t-67.5 63q52 288 109 523q-15 -6 -41.5 -18.5t-37.5 -17.5q-23 59 -11 180q-48 -90 -78 -200zM715 1283q144 41 280 55q85 8 163.5 -11.5 t136.5 -61t89.5 -108t23.5 -145.5q-8 -92 -66.5 -164.5t-144.5 -118.5q70 -124 162 -251q94 127 136 303q32 122 26 233.5t-42 199.5t-114.5 149t-190.5 83q-138 27 -254.5 -17.5t-204.5 -145.5zM1001 1080q26 -14 58 -48q-8 -24 -22 -72t-18 -62q63 43 76 91 q11 41 -15.5 64t-78.5 27z" />
<glyph unicode="&#xaf;" horiz-adv-x="868" d="M164 1188q-17 92 12 219t86 181l767 4q28 -53 -2 -201.5t-93 -193.5q-99 0 -408.5 -3t-361.5 -6z" />
<glyph unicode="&#xb0;" horiz-adv-x="812" d="M154 1322q23 169 152 263.5t300 74.5q172 -19 269.5 -138.5t74.5 -288.5q-23 -171 -147 -267.5t-295 -76.5q-172 19 -274.5 142t-79.5 291zM472 1289q-6 -37 16 -65t59 -31q38 -5 65 16.5t32 60.5q4 38 -17.5 64.5t-59.5 30.5q-39 3 -65 -17.5t-30 -58.5z" />
<glyph unicode="&#xb1;" horiz-adv-x="1384" d="M272 745v264h371v419h268v-419h367v-264h-367v-435h-268v435h-371zM280 -44v261h1008v-261h-1008z" />
<glyph unicode="&#xb4;" horiz-adv-x="531" d="M127 1137q56 54 100 117t70.5 122.5t41 108t21.5 91.5q103 1 194 -26.5t151 -80.5q-25 -107 -106 -228.5t-193 -213.5q-77 -3 -158.5 25t-120.5 85z" />
<glyph unicode="&#xb6;" horiz-adv-x="1624" d="M152 1111q0 136 62.5 245.5t165 176t231 98t264.5 22.5q200 -14 425.5 -89.5t369.5 -157.5q13 -86 -9 -201.5t-57 -187.5q-33 -175 -100.5 -537.5t-93.5 -497.5q-70 -10 -162 5t-172 57t-94 101q147 786 200 1074q-118 38 -219 49q70 -31 122 -83q-49 -179 -99 -410.5 t-74.5 -363t-75.5 -416.5q-124 -22 -240 32.5t-166 160.5q27 214 49 340q-144 81 -236 231t-91 352z" />
<glyph unicode="&#xb7;" horiz-adv-x="542" d="M130.5 957.5q17.5 67.5 69.5 123.5t121 77q84 25 154.5 -14.5t97.5 -122.5q34 -104 -22.5 -206.5t-162.5 -135.5q-84 -26 -157.5 14.5t-99.5 125.5q-18 71 -0.5 138.5z" />
<glyph unicode="&#xb8;" horiz-adv-x="615" d="M-158 -501q-1 62 41 126t92 88q51 -67 109 -107t110 -48q43 -6 40 12q-3 13 -21 22q-33 15 -63.5 32t-65.5 41.5t-62.5 50.5t-50.5 59.5t-34 68t-9 76.5t21 85q27 59 77 99q66 -11 118 -61t66 -96q-13 -11 -17 -26q-8 -20 14.5 -42t60 -42t79 -48.5t72.5 -62t40 -83 t-18 -110.5q-13 -72 -54.5 -121.5t-97.5 -69.5t-122.5 -19.5t-128 21.5t-114.5 61.5t-82 93.5z" />
<glyph unicode="&#xbb;" horiz-adv-x="1252" d="M3 123q48 51 118 178t97 206q0 73 -39 225t-77 218q60 52 143.5 68t213.5 2q67 -81 126.5 -251.5t67.5 -283.5q2 -24 -3 -44q-35 -107 -134.5 -258t-183.5 -214q-130 19 -207 54.5t-122 99.5zM590 123q49 51 119 178t97 206q0 73 -39.5 224.5t-77.5 218.5q60 52 143.5 68 t213.5 2q67 -81 126.5 -251.5t67.5 -283.5q2 -24 -3 -44q-35 -107 -134.5 -258t-183.5 -214q-130 19 -207 54.5t-122 99.5z" />
<glyph unicode="&#xbc;" horiz-adv-x="1772" d="M139 1320q87 76 141 135.5t90 129.5v3q69 9 146.5 -12t122.5 -67q-60 -357 -152 -815q-70 -10 -161.5 22t-104.5 87q16 77 82 422q-93 22 -164 95zM206 60q89 165 472.5 790t446.5 739q90 16 204.5 2.5t184.5 -58.5q-105 -165 -493.5 -810t-442.5 -731q-86 -18 -207 0 t-165 68zM1004 363l472 537v1q64 9 135.5 -11.5t114.5 -63.5q-68 -356 -84 -445l85 7q5 -102 -46 -191l-73 -2l-38 -206q-64 -8 -148.5 22t-95.5 80l17 97l-241 -6q-35 24 -66.5 80.5t-31.5 100.5zM1260 352l115 8l27 144z" />
<glyph unicode="&#xbd;" horiz-adv-x="1746" d="M139 1320q87 76 141 135.5t90 129.5v3q69 9 146.5 -12t122.5 -67q-60 -357 -152 -815q-70 -10 -161.5 22t-104.5 87q16 77 82 422q-93 22 -164 95zM206 60q89 165 472.5 790t446.5 739q90 16 204.5 2.5t184.5 -58.5q-105 -165 -493.5 -810t-442.5 -731q-86 -18 -207 0 t-165 68zM1103 183q34 49 95 112.5t111.5 110.5t94.5 101t56 95q14 47 -8 58q-20 9 -41 -23q-21 -30 -25 -83q-59 -6 -125.5 13.5t-104.5 68.5q35 155 138 223t245 23q107 -35 157 -109t39 -165q-6 -53 -30 -101t-66.5 -93t-79 -76.5t-95.5 -76.5l218 1q6 -65 -12.5 -137.5 t-58.5 -124.5q-328 0 -405 -7v3l-1 -1q-1 -1 -1 -2q-7 11 -24.5 40t-26.5 45t-21.5 38.5t-19.5 38.5t-9 28z" />
<glyph unicode="&#xbe;" horiz-adv-x="1964" d="M119 965q34 21 105 30t132 6q19 -84 80 -79q47 5 47 50q0 17 -9.5 34.5t-25.5 20.5l-130 1q-25 30 -31 86.5t7 108.5l112 -2l-2 1q40 -2 65.5 20.5t35.5 58.5q12 40 -10 45q-21 5 -42 -27q-18 -25 -22 -63q-59 -6 -126 13.5t-103 68.5q65 178 152 237t236 17 q14 -4 27 -8.5t33.5 -13.5t36.5 -20t35.5 -27.5t31 -37t22.5 -47.5t10 -58.5t-6 -71.5q-11 -56 -38 -95t-81 -65q123 -48 105 -209q-8 -69 -41 -121t-81 -80t-100 -41.5t-108 -13.5q-65 0 -125 17.5t-108.5 50.5t-72.5 88.5t-11 125.5zM399 60q89 165 472.5 790t446.5 739 q90 16 204.5 2.5t184.5 -58.5q-105 -165 -495 -810.5t-442 -730.5q-86 -18 -206.5 0t-164.5 68zM1196 363l472 537v1q64 9 135.5 -11.5t114.5 -63.5q-25 -133 -83 -445l85 7q4 -100 -47 -191l-72 -2l-38 -206q-64 -8 -149 22t-96 80l18 97l-242 -6q-35 24 -66.5 80.5 t-31.5 100.5zM1453 352l114 8l28 144z" />
<glyph unicode="&#xbf;" horiz-adv-x="1039" d="M12 351q10 103 42.5 179t77.5 117.5t97.5 69.5t105 46t97.5 36.5t78.5 49.5t43.5 78q57 24 187.5 8t166.5 -46q3 -94 -17 -165.5t-56 -113t-80.5 -71.5t-91.5 -49t-87 -35.5t-70 -41t-38 -57.5q-35 -143 6 -154q34 -8 64.5 40.5t55.5 154.5q93 12 204.5 -19.5 t181.5 -108.5q-28 -86 -61 -154.5t-75 -126.5t-93 -95.5t-113 -58t-138.5 -17.5t-164.5 30q-136 42 -209 100.5t-101 154.5t-13 249zM654 1107q-34 104 23 207t163 136q84 26 157 -15t99 -126q18 -71 1 -138.5t-69 -123t-121 -76.5q-84 -25 -155 14t-98 122z" />
<glyph unicode="&#xc0;" d="M-56 120q61 218 158.5 462.5t247 523t311.5 483.5q95 23 215 16.5t212 -43.5q156 -605 163 -1520q-39 -33 -136.5 -45.5t-196 -4t-151.5 30.5q5 138 9 272q-155 0 -291 -4q-49 -167 -85 -295q-149 -15 -270 14.5t-186 109.5zM588 614l193 2q2 260 -8 480 q-90 -204 -185 -482zM636 2157q60 53 150.5 80.5t193.5 26.5q15 -98 71.5 -217.5t162.5 -221.5q-39 -57 -120.5 -85t-158.5 -25q-112 92 -193 213.5t-106 228.5z" />
<glyph unicode="&#xc1;" d="M-56 120q61 218 158.5 462.5t247 523t311.5 483.5q95 23 215 16.5t212 -43.5q156 -605 163 -1520q-39 -33 -136.5 -45.5t-196 -4t-151.5 30.5q5 138 9 272q-155 0 -291 -4q-49 -167 -85 -295q-149 -15 -270 14.5t-186 109.5zM588 614l193 2q2 260 -8 480 q-90 -204 -185 -482zM655 1825q106 102 162.5 221.5t71.5 217.5q103 1 193.5 -26.5t150.5 -80.5q-25 -107 -106 -228.5t-193 -213.5q-77 -3 -158.5 25t-120.5 85z" />
<glyph unicode="&#xc2;" d="M-56 120q61 218 158.5 462.5t247 523t311.5 483.5q95 23 215 16.5t212 -43.5q156 -605 163 -1520q-39 -33 -136.5 -45.5t-196 -4t-151.5 30.5q5 138 9 272q-155 0 -291 -4q-49 -167 -85 -295q-149 -15 -270 14.5t-186 109.5zM512 1800q44 85 129 200t190 209 q140 32 316 -27q56 -102 106.5 -237t77.5 -236q-63 -26 -150 -26t-150 30q-38 69 -79 185q-60 -77 -160 -189q-87 -3 -163.5 19t-116.5 72zM588 614l193 2q2 260 -8 480q-90 -204 -185 -482z" />
<glyph unicode="&#xc3;" d="M-56 120q61 218 158.5 462.5t247 523t311.5 483.5q95 23 215 16.5t212 -43.5q156 -605 163 -1520q-39 -33 -136.5 -45.5t-196 -4t-151.5 30.5q5 138 9 272q-155 0 -291 -4q-49 -167 -85 -295q-149 -15 -270 14.5t-186 109.5zM401 1862q-6 170 94 274.5t263 104.5 q68 0 124 -19.5t90.5 -47.5t61 -55.5t50.5 -47t46 -19.5q19 0 28.5 12t6.5 30q48 35 151.5 45.5t163.5 -17.5q11 -170 -97.5 -280.5t-280.5 -110.5q-68 0 -121 19t-83 46.5t-52 55t-40.5 46.5t-36.5 19q-32 0 -30 -42q-53 -27 -154.5 -34t-183.5 21zM588 614l193 2 q2 260 -8 480q-90 -204 -185 -482z" />
<glyph unicode="&#xc4;" d="M-56 120q61 218 158.5 462.5t247 523t311.5 483.5q95 23 215 16.5t212 -43.5q156 -605 163 -1520q-39 -33 -136.5 -45.5t-196 -4t-151.5 30.5q5 138 9 272q-155 0 -291 -4q-49 -167 -85 -295q-149 -15 -270 14.5t-186 109.5zM527 1840l45 301q184 -6 329 -107l-67 -301 q-85 3 -166.5 31t-140.5 76zM588 614l193 2q2 260 -8 480q-90 -204 -185 -482zM937 1840l45 301q184 -6 329 -107l-67 -301q-85 3 -166.5 31t-140.5 76z" />
<glyph unicode="&#xc5;" d="M-56 120q86 307 251.5 677.5t372.5 667.5q-88 118 -66 273q23 169 152 264t300 75q172 -19 269.5 -139t74.5 -289q-24 -185 -166 -281q112 -545 119 -1326q-39 -33 -136.5 -45.5t-196 -4t-151.5 30.5q5 138 9 272q-155 0 -291 -4q-49 -167 -85 -295q-149 -15 -270 14.5 t-186 109.5zM588 614l193 2q2 260 -8 480q-90 -204 -185 -482zM821 1705q-6 -37 16 -64.5t59 -30.5q39 -5 65.5 16t31.5 60q4 38 -18 65t-60 31q-38 3 -64 -18t-30 -59z" />
<glyph unicode="&#xc6;" horiz-adv-x="1798" d="M-113 101q64 163 148.5 343.5t198.5 388.5t257 409t289 347q82 25 251 14.5t267 -57.5q7 -3 19.5 -9t16.5 -8q24 36 46 56l500 4q15 -24 11.5 -85t-16.5 -126t-43 -126t-67 -85q-163 0 -393 -5l-42 -225q3 2 9.5 8t8.5 9l372 4q28 -53 -5.5 -201t-100.5 -193 q-117 0 -355 -7l-33 -180q15 22 37 44l448 1q13 -29 8.5 -91t-17.5 -125.5t-42 -122.5t-65 -83q-58 0 -239 -4t-202 -4q-76 -9 -168.5 6.5t-169 59t-90.5 102.5l25 134q-54 -1 -155 -3t-129 -2q-69 -175 -119 -314q-136 -12 -271 20t-190 106zM603 614l209 2l108 573 q-162 -236 -317 -575z" />
<glyph unicode="&#xc7;" horiz-adv-x="1238" d="M94 831q73 443 282.5 647t516.5 140q129 -27 216.5 -90.5t130.5 -148t56 -198t0.5 -228.5t-44.5 -253q-107 -20 -256 17t-210 101q25 71 41.5 134t24 124t-6 100t-49.5 45q-33 6 -63.5 -23t-56.5 -88.5t-47.5 -132.5t-42.5 -169q-29 -132 -39 -221.5t0 -147.5t44 -73 q35 -16 69 14.5t55.5 79t36.5 105.5q86 11 226 -50t188 -130q-204 -525 -642 -414q5 -10 11 -24q-14 -13 -18 -26q-9 -24 24 -50.5t81.5 -51.5t94 -65.5t63 -91.5t-13.5 -129q-13 -72 -54.5 -121.5t-97.5 -69.5t-122.5 -19.5t-128 21.5t-114.5 61.5t-82 93.5q-1 62 41 126 t92 88q51 -67 109 -107t110 -48q43 -6 40 12q-3 13 -21 22q-33 15 -63.5 32t-65.5 41.5t-62.5 50.5t-50.5 59.5t-34 68t-9 76.5t21 85q15 33 35 56q-310 206 -215 770z" />
<glyph unicode="&#xc8;" horiz-adv-x="1116" d="M45 160q9 50 116.5 617t151.5 814q81 11 173 -5.5t167 -56.5q24 36 46 56l500 4q15 -24 11.5 -85t-16.5 -126t-43 -126t-67 -85q-163 0 -393 -5l-42 -225l17 17l373 4q28 -53 -5.5 -201t-100.5 -193q-117 0 -355 -7l-33 -180q15 22 37 44l447 1q13 -29 8.5 -91 t-17.5 -125.5t-42 -122.5t-65 -83q-58 0 -239 -4t-202 -4q-76 -9 -168 6.5t-168.5 59t-90.5 102.5zM537 2157q60 53 150.5 80.5t193.5 26.5q7 -43 21.5 -91.5t41 -108t70.5 -122.5t100 -117q-39 -57 -120 -85t-158 -25q-112 92 -193 213.5t-106 228.5z" />
<glyph unicode="&#xc9;" horiz-adv-x="1116" d="M45 160q9 50 116.5 617t151.5 814q81 11 173 -5.5t167 -56.5q24 36 46 56l500 4q15 -24 11.5 -85t-16.5 -126t-43 -126t-67 -85q-163 0 -393 -5l-42 -225l17 17l373 4q28 -53 -5.5 -201t-100.5 -193q-117 0 -355 -7l-33 -180q15 22 37 44l447 1q13 -29 8.5 -91 t-17.5 -125.5t-42 -122.5t-65 -83q-58 0 -239 -4t-202 -4q-76 -9 -168 6.5t-168.5 59t-90.5 102.5zM556 1825q56 54 100 117t70.5 122.5t41 108t21.5 91.5q103 1 193.5 -26.5t150.5 -80.5q-25 -107 -106 -228.5t-193 -213.5q-77 -3 -158 25t-120 85z" />
<glyph unicode="&#xca;" horiz-adv-x="1116" d="M45 160q9 50 116.5 617t151.5 814q81 11 173 -5.5t167 -56.5q24 36 46 56l500 4q15 -24 11.5 -85t-16.5 -126t-43 -126t-67 -85q-163 0 -393 -5l-42 -225l17 17l373 4q28 -53 -5.5 -201t-100.5 -193q-117 0 -355 -7l-33 -180q15 22 37 44l447 1q13 -29 8.5 -91 t-17.5 -125.5t-42 -122.5t-65 -83q-58 0 -239 -4t-202 -4q-76 -9 -168 6.5t-168.5 59t-90.5 102.5zM412 1800q43 85 129 200t191 209q139 32 315 -27q56 -102 107 -238t78 -235q-63 -26 -150.5 -26t-150.5 30q-38 69 -79 185q-60 -77 -160 -189q-87 -3 -163.5 19t-116.5 72z " />
<glyph unicode="&#xcb;" horiz-adv-x="1116" d="M45 160q9 50 116.5 617t151.5 814q81 11 173 -5.5t167 -56.5q24 36 46 56l500 4q15 -24 11.5 -85t-16.5 -126t-43 -126t-67 -85q-163 0 -393 -5l-42 -225l17 17l373 4q28 -53 -5.5 -201t-100.5 -193q-117 0 -355 -7l-33 -180q15 22 37 44l447 1q13 -29 8.5 -91 t-17.5 -125.5t-42 -122.5t-65 -83q-58 0 -239 -4t-202 -4q-76 -9 -168 6.5t-168.5 59t-90.5 102.5zM427 1840l45 301q184 -6 329 -107l-66 -301q-86 3 -167.5 31t-140.5 76zM837 1840l45 301q184 -6 329 -107l-67 -301q-85 3 -166.5 31t-140.5 76z" />
<glyph unicode="&#xcc;" horiz-adv-x="688" d="M42 145q11 61 119 632.5t152 813.5q126 16 257 -13.5t203 -102.5q-40 -207 -144.5 -767.5t-136.5 -725.5q-70 -10 -167.5 5t-183 57t-99.5 101zM304 2157q60 53 151 80.5t194 26.5q7 -43 21.5 -91.5t41 -108t70.5 -122.5t100 -117q-39 -57 -120.5 -85t-158.5 -25 q-112 92 -193 213.5t-106 228.5z" />
<glyph unicode="&#xcd;" horiz-adv-x="688" d="M42 145q11 61 119 632.5t152 813.5q126 16 257 -13.5t203 -102.5q-40 -207 -144.5 -767.5t-136.5 -725.5q-70 -10 -167.5 5t-183 57t-99.5 101zM324 1825q56 54 100 117t70.5 122.5t41 108t21.5 91.5q103 1 193.5 -26.5t150.5 -80.5q-25 -107 -106 -228.5t-193 -213.5 q-77 -3 -158 25t-120 85z" />
<glyph unicode="&#xce;" horiz-adv-x="688" d="M42 145q11 61 119 632.5t152 813.5q126 16 257 -13.5t203 -102.5q-40 -207 -144.5 -767.5t-136.5 -725.5q-70 -10 -167.5 5t-183 57t-99.5 101zM180 1800q43 85 129 200t191 209q139 32 315 -27q56 -102 106.5 -237t77.5 -236q-63 -26 -150 -26t-150 30q-38 69 -79 185 q-60 -77 -160 -189q-87 -3 -163.5 19t-116.5 72z" />
<glyph unicode="&#xcf;" horiz-adv-x="688" d="M42 145q11 61 119 632.5t152 813.5q126 16 257 -13.5t203 -102.5q-40 -207 -144.5 -767.5t-136.5 -725.5q-70 -10 -167.5 5t-183 57t-99.5 101zM195 1840l45 301q184 -6 329 -107l-67 -301q-85 3 -166.5 31t-140.5 76zM605 1840l45 301q184 -6 329 -107l-67 -301 q-85 3 -166.5 31t-140.5 76z" />
<glyph unicode="&#xd0;" horiz-adv-x="1422" d="M52 568q-10 102 28.5 222.5t98.5 177.5l156 1l40 175q-77 -45 -155 -112q-39 64 -42 191t32 223q233 165 541 183q186 10 332 -36t237 -138t137 -221t40.5 -287.5t-61.5 -333.5q-48 -151 -119.5 -269t-153.5 -191t-172.5 -120t-184 -61.5t-179.5 -9t-166 30.5 q-93 14 -167 67.5t-108 133.5q43 263 65 378q-130 -1 -199 -4zM666 367q87 -43 186 60.5t153 319.5q62 247 -11.5 366.5t-253.5 128.5q80 -37 126 -95q-23 -77 -51 -175h103q16 -24 16 -80t-13 -117t-41 -118t-64 -79h-102q-4 -19 -21.5 -94.5t-26.5 -116.5z" />
<glyph unicode="&#xd1;" horiz-adv-x="1432" d="M45 160q11 60 117.5 624t151.5 807q101 15 225 -20t197 -110q18 -505 156 -877q49 329 88 636.5t39 386.5q117 9 244.5 -40.5t198.5 -141.5q14 -196 -76 -686.5t-194 -784.5q-83 -8 -171.5 12t-153.5 63q-16 8 -25 16q-24 22 -35 36q-132 146 -235 488 q-64 -423 -100 -587q-68 -9 -161 9t-172.5 64t-93.5 105zM452 1862q-6 170 93.5 274.5t262.5 104.5q68 0 124 -19.5t90.5 -47.5t61.5 -55.5t51 -47t46 -19.5q19 0 28 12t6 30q48 35 152 45.5t164 -17.5q11 -169 -98 -280t-281 -111q-68 0 -121 19t-83 46.5t-52 55 t-40.5 46.5t-36.5 19q-32 0 -30 -42q-53 -27 -154 -34t-183 21z" />
<glyph unicode="&#xd2;" horiz-adv-x="1321" d="M64 545q0 78 8 144t22 144q84 450 290.5 648.5t526.5 137.5q139 -26 237.5 -91t151.5 -156.5t70.5 -211t2 -252.5t-60.5 -284q-43 -144 -99 -257t-121 -190t-137.5 -127t-152.5 -70.5t-163 -17.5t-171 28q-93 27 -163.5 70.5t-115.5 94.5t-73.5 117.5t-40 130.5 t-11.5 142zM594 815q-96 -402 8 -442q12 -3 25 -4.5t29 9t32 27t34.5 49t37 75t39.5 105t41 139.5q33 121 46 205.5t7.5 131.5t-20.5 69.5t-42 30.5q-29 10 -55.5 -1.5t-56.5 -51t-62 -126t-63 -216.5zM672 2157q60 53 150.5 80.5t193.5 26.5q7 -43 21.5 -91.5t41 -108 t70.5 -122.5t100 -117q-39 -57 -120 -85t-158 -25q-112 92 -193 213.5t-106 228.5z" />
<glyph unicode="&#xd3;" horiz-adv-x="1321" d="M64 545q0 78 8 144t22 144q84 450 290.5 648.5t526.5 137.5q139 -26 237.5 -91t151.5 -156.5t70.5 -211t2 -252.5t-60.5 -284q-43 -144 -99 -257t-121 -190t-137.5 -127t-152.5 -70.5t-163 -17.5t-171 28q-93 27 -163.5 70.5t-115.5 94.5t-73.5 117.5t-40 130.5 t-11.5 142zM594 815q-96 -402 8 -442q12 -3 25 -4.5t29 9t32 27t34.5 49t37 75t39.5 105t41 139.5q33 121 46 205.5t7.5 131.5t-20.5 69.5t-42 30.5q-29 10 -55.5 -1.5t-56.5 -51t-62 -126t-63 -216.5zM691 1825q56 54 100 117t70.5 122.5t41 108t21.5 91.5 q103 1 193.5 -26.5t150.5 -80.5q-25 -107 -106 -228.5t-193 -213.5q-77 -3 -158 25t-120 85z" />
<glyph unicode="&#xd4;" horiz-adv-x="1321" d="M64 545q0 78 8 144t22 144q84 450 290.5 648.5t526.5 137.5q139 -26 237.5 -91t151.5 -156.5t70.5 -211t2 -252.5t-60.5 -284q-43 -144 -99 -257t-121 -190t-137.5 -127t-152.5 -70.5t-163 -17.5t-171 28q-93 27 -163.5 70.5t-115.5 94.5t-73.5 117.5t-40 130.5 t-11.5 142zM547 1800q43 85 129 200t191 209q139 32 315 -27q56 -102 107 -238t78 -235q-63 -26 -150.5 -26t-150.5 30q-38 69 -79 185q-60 -77 -160 -189q-87 -3 -163.5 19t-116.5 72zM594 815q-96 -402 8 -442q12 -3 25 -4.5t29 9t32 27t34.5 49t37 75t39.5 105t41 139.5 q33 121 46 205.5t7.5 131.5t-20.5 69.5t-42 30.5q-29 10 -55.5 -1.5t-56.5 -51t-62 -126t-63 -216.5z" />
<glyph unicode="&#xd5;" horiz-adv-x="1321" d="M64 545q0 78 8 144t22 144q84 450 290.5 648.5t526.5 137.5q139 -26 237.5 -91t151.5 -156.5t70.5 -211t2 -252.5t-60.5 -284q-43 -144 -99 -257t-121 -190t-137.5 -127t-152.5 -70.5t-163 -17.5t-171 28q-93 27 -163.5 70.5t-115.5 94.5t-73.5 117.5t-40 130.5 t-11.5 142zM437 1862q-6 170 93.5 274.5t262.5 104.5q68 0 124 -19.5t90.5 -47.5t61.5 -55.5t51 -47t46 -19.5q19 0 28 12t6 30q48 35 152 45.5t164 -17.5q11 -169 -98 -280t-281 -111q-68 0 -121 19t-83 46.5t-52 55t-40.5 46.5t-36.5 19q-32 0 -30 -42q-53 -27 -154 -34 t-183 21zM594 815q-96 -402 8 -442q12 -3 25 -4.5t29 9t32 27t34.5 49t37 75t39.5 105t41 139.5q33 121 46 205.5t7.5 131.5t-20.5 69.5t-42 30.5q-29 10 -55.5 -1.5t-56.5 -51t-62 -126t-63 -216.5z" />
<glyph unicode="&#xd6;" horiz-adv-x="1321" d="M64 545q0 78 8 144t22 144q84 450 290.5 648.5t526.5 137.5q139 -26 237.5 -91t151.5 -156.5t70.5 -211t2 -252.5t-60.5 -284q-43 -144 -99 -257t-121 -190t-137.5 -127t-152.5 -70.5t-163 -17.5t-171 28q-93 27 -163.5 70.5t-115.5 94.5t-73.5 117.5t-40 130.5 t-11.5 142zM563 1840l45 301q184 -6 329 -107l-67 -301q-85 3 -166.5 31t-140.5 76zM594 815q-96 -402 8 -442q12 -3 25 -4.5t29 9t32 27t34.5 49t37 75t39.5 105t41 139.5q33 121 46 205.5t7.5 131.5t-20.5 69.5t-42 30.5q-29 10 -55.5 -1.5t-56.5 -51t-62 -126t-63 -216.5 zM972 1840l45 301q184 -6 329 -107l-67 -301q-85 3 -166.5 31t-140.5 76z" />
<glyph unicode="&#xd7;" horiz-adv-x="1346" d="M201 229l370 409l-359 400l189 180l350 -391l332 392l188 -177l-363 -404l360 -409l-191 -172l-342 389l-343 -387z" />
<glyph unicode="&#xd8;" horiz-adv-x="1480" d="M-64 53q60 60 210 234q-145 266 4 710q120 355 355.5 511.5t558.5 97.5q32 -5 71 -17q59 88 114 189q91 1 212 -45t149 -104q-44 -90 -159 -262q162 -262 22 -744q-51 -179 -130 -312t-172.5 -210.5t-202.5 -114t-220.5 -32t-227.5 44.5q-62 22 -91 36q-80 -92 -163 -173 q-65 -1 -140.5 30.5t-128.5 76.5t-61 84zM534 766q159 204 338 451q-56 -8 -107 -44.5t-90.5 -93t-70 -120.5t-54.5 -138zM710 369q56 4 109 39t94.5 92t74 121.5t56.5 137.5q10 27 22 67q-144 -192 -356 -457z" />
<glyph unicode="&#xd9;" horiz-adv-x="1287" d="M73.5 445q-3.5 86 5 173.5t29.5 200.5q95 516 156 770q111 25 246.5 0.5t229.5 -83.5q-121 -532 -179 -859q-31 -171 -29 -214q5 -50 41 -66q54 -23 104.5 38.5t91.5 219.5q19 73 53 243.5t77.5 395t63.5 320.5q109 17 243.5 -9t221.5 -81q-111 -536 -172 -870 q-31 -172 -89.5 -300.5t-135 -206t-172 -116.5t-199 -38t-218.5 36q-96 29 -165 71.5t-111.5 100t-65.5 123t-26.5 151.5zM653 2157q60 53 150.5 80.5t193.5 26.5q7 -43 21.5 -91.5t41 -108t70.5 -122.5t100 -117q-39 -57 -120 -85t-158 -25q-112 92 -193 213.5t-106 228.5z " />
<glyph unicode="&#xda;" horiz-adv-x="1287" d="M73.5 445q-3.5 86 5 173.5t29.5 200.5q95 516 156 770q111 25 246.5 0.5t229.5 -83.5q-121 -532 -179 -859q-31 -171 -29 -214q5 -50 41 -66q54 -23 104.5 38.5t91.5 219.5q19 73 53 243.5t77.5 395t63.5 320.5q109 17 243.5 -9t221.5 -81q-111 -536 -172 -870 q-31 -172 -89.5 -300.5t-135 -206t-172 -116.5t-199 -38t-218.5 36q-96 29 -165 71.5t-111.5 100t-65.5 123t-26.5 151.5zM672 1825q56 54 100 117t70.5 122.5t41 108t21.5 91.5q103 1 193.5 -26.5t150.5 -80.5q-25 -107 -106 -228.5t-193 -213.5q-77 -3 -158 25t-120 85z " />
<glyph unicode="&#xdb;" horiz-adv-x="1287" d="M73.5 445q-3.5 86 5 173.5t29.5 200.5q95 516 156 770q111 25 246.5 0.5t229.5 -83.5q-121 -532 -179 -859q-31 -171 -29 -214q5 -50 41 -66q54 -23 104.5 38.5t91.5 219.5q19 73 53 243.5t77.5 395t63.5 320.5q109 17 243.5 -9t221.5 -81q-111 -536 -172 -870 q-31 -172 -89.5 -300.5t-135 -206t-172 -116.5t-199 -38t-218.5 36q-96 29 -165 71.5t-111.5 100t-65.5 123t-26.5 151.5zM528 1800q43 85 129 200t191 209q139 32 315 -27q56 -102 107 -238t78 -235q-63 -26 -150.5 -26t-150.5 30q-38 69 -79 185q-60 -77 -160 -189 q-87 -3 -163.5 19t-116.5 72z" />
<glyph unicode="&#xdc;" horiz-adv-x="1287" d="M73.5 445q-3.5 86 5 173.5t29.5 200.5q95 516 156 770q111 25 246.5 0.5t229.5 -83.5q-121 -532 -179 -859q-31 -171 -29 -214q5 -50 41 -66q54 -23 104.5 38.5t91.5 219.5q19 73 53 243.5t77.5 395t63.5 320.5q109 17 243.5 -9t221.5 -81q-111 -536 -172 -870 q-31 -172 -89.5 -300.5t-135 -206t-172 -116.5t-199 -38t-218.5 36q-96 29 -165 71.5t-111.5 100t-65.5 123t-26.5 151.5zM543 1840l45 301q186 -6 330 -107l-67 -301q-86 3 -167.5 31t-140.5 76zM953 1840l45 301q184 -6 329 -107l-67 -301q-85 3 -166.5 31t-140.5 76z" />
<glyph unicode="&#xdd;" horiz-adv-x="1246" d="M176 1567q108 37 241 36t260 -42q9 -276 45 -542q105 214 246 588q151 4 279 -31t199 -116q-80 -201 -240 -473.5t-361 -499.5q-19 -103 -47.5 -252.5t-47.5 -252.5q-72 -10 -168.5 9t-178.5 68t-97 112q12 68 38.5 196.5t45.5 231.5q-89 249 -142 511t-72 457zM625 1825 q106 102 162.5 221.5t71.5 217.5q103 1 193.5 -26.5t150.5 -80.5q-25 -107 -106 -228.5t-193 -213.5q-77 -3 -158.5 25t-120.5 85z" />
<glyph unicode="&#xde;" horiz-adv-x="1365" d="M136 981q-6 123 32 215q129 66 248 102l55 293q126 16 257 -13.5t203 -102.5l-24 -130q117 -18 213 -65.5t166.5 -121t106 -180t27.5 -235.5q-6 -94 -34 -178.5t-71.5 -149t-100 -116t-121.5 -84t-133.5 -49t-138.5 -14t-134 23.5l-37 -194q-51 -7 -122 0.5t-140.5 26.5 t-122.5 55t-64 81l139 741q-78 -40 -157 -97q-41 69 -47 192zM748 505q80 -17 146 37.5t78 160.5q9 87 -29.5 150t-111.5 95z" />
<glyph unicode="&#xdf;" horiz-adv-x="1239" d="M52 177q123 723 176 1020q19 103 67.5 184.5t117 132.5t148 79t167.5 33q77 5 144.5 -6.5t118.5 -35t93.5 -57t70 -75t49 -87t29 -93t10 -95t-6.5 -90.5q-33 -185 -187 -276q86 -63 131.5 -165.5t36.5 -241.5q-6 -96 -42 -175t-90 -133t-127 -93.5t-149 -60.5t-159 -29 q-124 144 -67 363q47 13 80 25.5t64.5 31.5t48.5 45.5t20 61.5q7 80 -32.5 133t-106.5 61q-10 39 -12 79.5t8 88.5t35 85h3q105 39 127 159q36 208 -64 220q-30 4 -52 -19.5t-33 -66.5q-34 -135 -68.5 -299t-57.5 -283.5t-59 -311t-55 -289.5q-117 -20 -223.5 31t-153.5 149 z" />
<glyph unicode="&#xe0;" d="M-56 120q61 218 158.5 462.5t247 523t311.5 483.5q95 23 215 16.5t212 -43.5q156 -605 163 -1520q-39 -33 -136.5 -45.5t-196 -4t-151.5 30.5q5 138 9 272q-155 0 -291 -4q-49 -167 -85 -295q-149 -15 -270 14.5t-186 109.5zM588 614l193 2q2 260 -8 480 q-90 -204 -185 -482zM636 2157q60 53 150.5 80.5t193.5 26.5q15 -98 71.5 -217.5t162.5 -221.5q-39 -57 -120.5 -85t-158.5 -25q-112 92 -193 213.5t-106 228.5z" />
<glyph unicode="&#xe1;" d="M-56 120q61 218 158.5 462.5t247 523t311.5 483.5q95 23 215 16.5t212 -43.5q156 -605 163 -1520q-39 -33 -136.5 -45.5t-196 -4t-151.5 30.5q5 138 9 272q-155 0 -291 -4q-49 -167 -85 -295q-149 -15 -270 14.5t-186 109.5zM588 614l193 2q2 260 -8 480 q-90 -204 -185 -482zM655 1825q106 102 162.5 221.5t71.5 217.5q103 1 193.5 -26.5t150.5 -80.5q-25 -107 -106 -228.5t-193 -213.5q-77 -3 -158.5 25t-120.5 85z" />
<glyph unicode="&#xe2;" d="M-56 120q61 218 158.5 462.5t247 523t311.5 483.5q95 23 215 16.5t212 -43.5q156 -605 163 -1520q-39 -33 -136.5 -45.5t-196 -4t-151.5 30.5q5 138 9 272q-155 0 -291 -4q-49 -167 -85 -295q-149 -15 -270 14.5t-186 109.5zM512 1800q44 85 129 200t190 209 q140 32 316 -27q56 -102 106.5 -237t77.5 -236q-63 -26 -150 -26t-150 30q-38 69 -79 185q-60 -77 -160 -189q-87 -3 -163.5 19t-116.5 72zM588 614l193 2q2 260 -8 480q-90 -204 -185 -482z" />
<glyph unicode="&#xe3;" d="M-56 120q61 218 158.5 462.5t247 523t311.5 483.5q95 23 215 16.5t212 -43.5q156 -605 163 -1520q-39 -33 -136.5 -45.5t-196 -4t-151.5 30.5q5 138 9 272q-155 0 -291 -4q-49 -167 -85 -295q-149 -15 -270 14.5t-186 109.5zM401 1862q-6 170 94 274.5t263 104.5 q68 0 124 -19.5t90.5 -47.5t61 -55.5t50.5 -47t46 -19.5q19 0 28.5 12t6.5 30q48 35 151.5 45.5t163.5 -17.5q11 -170 -97.5 -280.5t-280.5 -110.5q-68 0 -121 19t-83 46.5t-52 55t-40.5 46.5t-36.5 19q-32 0 -30 -42q-53 -27 -154.5 -34t-183.5 21zM588 614l193 2 q2 260 -8 480q-90 -204 -185 -482z" />
<glyph unicode="&#xe4;" d="M-56 120q61 218 158.5 462.5t247 523t311.5 483.5q95 23 215 16.5t212 -43.5q156 -605 163 -1520q-39 -33 -136.5 -45.5t-196 -4t-151.5 30.5q5 138 9 272q-155 0 -291 -4q-49 -167 -85 -295q-149 -15 -270 14.5t-186 109.5zM527 1840l45 301q184 -6 329 -107l-67 -301 q-85 3 -166.5 31t-140.5 76zM588 614l193 2q2 260 -8 480q-90 -204 -185 -482zM937 1840l45 301q184 -6 329 -107l-67 -301q-85 3 -166.5 31t-140.5 76z" />
<glyph unicode="&#xe5;" d="M-56 120q86 307 251.5 677.5t372.5 667.5q-88 118 -66 273q23 169 152 264t300 75q172 -19 269.5 -139t74.5 -289q-24 -185 -166 -281q112 -545 119 -1326q-39 -33 -136.5 -45.5t-196 -4t-151.5 30.5q5 138 9 272q-155 0 -291 -4q-49 -167 -85 -295q-149 -15 -270 14.5 t-186 109.5zM588 614l193 2q2 260 -8 480q-90 -204 -185 -482zM821 1705q-6 -37 16 -64.5t59 -30.5q39 -5 65.5 16t31.5 60q4 38 -18 65t-60 31q-38 3 -64 -18t-30 -59z" />
<glyph unicode="&#xe6;" horiz-adv-x="1798" d="M-113 101q64 163 148.5 343.5t198.5 388.5t257 409t289 347q82 25 251 14.5t267 -57.5q7 -3 19.5 -9t16.5 -8q24 36 46 56l500 4q15 -24 11.5 -85t-16.5 -126t-43 -126t-67 -85q-163 0 -393 -5l-42 -225q3 2 9.5 8t8.5 9l372 4q28 -53 -5.5 -201t-100.5 -193 q-117 0 -355 -7l-33 -180q15 22 37 44l448 1q13 -29 8.5 -91t-17.5 -125.5t-42 -122.5t-65 -83q-58 0 -239 -4t-202 -4q-76 -9 -168.5 6.5t-169 59t-90.5 102.5l25 134q-54 -1 -155 -3t-129 -2q-69 -175 -119 -314q-136 -12 -271 20t-190 106zM603 614l209 2l108 573 q-162 -236 -317 -575z" />
<glyph unicode="&#xe7;" horiz-adv-x="1238" d="M94 831q73 443 282.5 647t516.5 140q129 -27 216.5 -90.5t130.5 -148t56 -198t0.5 -228.5t-44.5 -253q-107 -20 -256 17t-210 101q25 71 41.5 134t24 124t-6 100t-49.5 45q-33 6 -63.5 -23t-56.5 -88.5t-47.5 -132.5t-42.5 -169q-29 -132 -39 -221.5t0 -147.5t44 -73 q35 -16 69 14.5t55.5 79t36.5 105.5q86 11 226 -50t188 -130q-204 -525 -642 -414q5 -10 11 -24q-14 -13 -18 -26q-9 -24 24 -50.5t81.5 -51.5t94 -65.5t63 -91.5t-13.5 -129q-13 -72 -54.5 -121.5t-97.5 -69.5t-122.5 -19.5t-128 21.5t-114.5 61.5t-82 93.5q-1 62 41 126 t92 88q51 -67 109 -107t110 -48q43 -6 40 12q-3 13 -21 22q-33 15 -63.5 32t-65.5 41.5t-62.5 50.5t-50.5 59.5t-34 68t-9 76.5t21 85q15 33 35 56q-310 206 -215 770z" />
<glyph unicode="&#xe8;" horiz-adv-x="1116" d="M45 160q9 50 116.5 617t151.5 814q81 11 173 -5.5t167 -56.5q24 36 46 56l500 4q15 -24 11.5 -85t-16.5 -126t-43 -126t-67 -85q-163 0 -393 -5l-42 -225l17 17l373 4q28 -53 -5.5 -201t-100.5 -193q-117 0 -355 -7l-33 -180q15 22 37 44l447 1q13 -29 8.5 -91 t-17.5 -125.5t-42 -122.5t-65 -83q-58 0 -239 -4t-202 -4q-76 -9 -168 6.5t-168.5 59t-90.5 102.5zM537 2157q60 53 150.5 80.5t193.5 26.5q7 -43 21.5 -91.5t41 -108t70.5 -122.5t100 -117q-39 -57 -120 -85t-158 -25q-112 92 -193 213.5t-106 228.5z" />
<glyph unicode="&#xe9;" horiz-adv-x="1116" d="M45 160q9 50 116.5 617t151.5 814q81 11 173 -5.5t167 -56.5q24 36 46 56l500 4q15 -24 11.5 -85t-16.5 -126t-43 -126t-67 -85q-163 0 -393 -5l-42 -225l17 17l373 4q28 -53 -5.5 -201t-100.5 -193q-117 0 -355 -7l-33 -180q15 22 37 44l447 1q13 -29 8.5 -91 t-17.5 -125.5t-42 -122.5t-65 -83q-58 0 -239 -4t-202 -4q-76 -9 -168 6.5t-168.5 59t-90.5 102.5zM556 1825q56 54 100 117t70.5 122.5t41 108t21.5 91.5q103 1 193.5 -26.5t150.5 -80.5q-25 -107 -106 -228.5t-193 -213.5q-77 -3 -158 25t-120 85z" />
<glyph unicode="&#xea;" horiz-adv-x="1116" d="M45 160q9 50 116.5 617t151.5 814q81 11 173 -5.5t167 -56.5q24 36 46 56l500 4q15 -24 11.5 -85t-16.5 -126t-43 -126t-67 -85q-163 0 -393 -5l-42 -225l17 17l373 4q28 -53 -5.5 -201t-100.5 -193q-117 0 -355 -7l-33 -180q15 22 37 44l447 1q13 -29 8.5 -91 t-17.5 -125.5t-42 -122.5t-65 -83q-58 0 -239 -4t-202 -4q-76 -9 -168 6.5t-168.5 59t-90.5 102.5zM412 1800q43 85 129 200t191 209q139 32 315 -27q56 -102 107 -238t78 -235q-63 -26 -150.5 -26t-150.5 30q-38 69 -79 185q-60 -77 -160 -189q-87 -3 -163.5 19t-116.5 72z " />
<glyph unicode="&#xeb;" horiz-adv-x="1116" d="M45 160q9 50 116.5 617t151.5 814q81 11 173 -5.5t167 -56.5q24 36 46 56l500 4q15 -24 11.5 -85t-16.5 -126t-43 -126t-67 -85q-163 0 -393 -5l-42 -225l17 17l373 4q28 -53 -5.5 -201t-100.5 -193q-117 0 -355 -7l-33 -180q15 22 37 44l447 1q13 -29 8.5 -91 t-17.5 -125.5t-42 -122.5t-65 -83q-58 0 -239 -4t-202 -4q-76 -9 -168 6.5t-168.5 59t-90.5 102.5zM427 1840l45 301q184 -6 329 -107l-66 -301q-86 3 -167.5 31t-140.5 76zM837 1840l45 301q184 -6 329 -107l-67 -301q-85 3 -166.5 31t-140.5 76z" />
<glyph unicode="&#xec;" horiz-adv-x="688" d="M42 145q11 61 119 632.5t152 813.5q126 16 257 -13.5t203 -102.5q-40 -207 -144.5 -767.5t-136.5 -725.5q-70 -10 -167.5 5t-183 57t-99.5 101zM304 2157q60 53 151 80.5t194 26.5q7 -43 21.5 -91.5t41 -108t70.5 -122.5t100 -117q-39 -57 -120.5 -85t-158.5 -25 q-112 92 -193 213.5t-106 228.5z" />
<glyph unicode="&#xed;" horiz-adv-x="688" d="M42 145q11 61 119 632.5t152 813.5q126 16 257 -13.5t203 -102.5q-40 -207 -144.5 -767.5t-136.5 -725.5q-70 -10 -167.5 5t-183 57t-99.5 101zM324 1825q56 54 100 117t70.5 122.5t41 108t21.5 91.5q103 1 193.5 -26.5t150.5 -80.5q-25 -107 -106 -228.5t-193 -213.5 q-77 -3 -158 25t-120 85z" />
<glyph unicode="&#xee;" horiz-adv-x="688" d="M42 145q11 61 119 632.5t152 813.5q126 16 257 -13.5t203 -102.5q-40 -207 -144.5 -767.5t-136.5 -725.5q-70 -10 -167.5 5t-183 57t-99.5 101zM180 1800q43 85 129 200t191 209q139 32 315 -27q56 -102 106.5 -237t77.5 -236q-63 -26 -150 -26t-150 30q-38 69 -79 185 q-60 -77 -160 -189q-87 -3 -163.5 19t-116.5 72z" />
<glyph unicode="&#xef;" horiz-adv-x="688" d="M42 145q11 61 119 632.5t152 813.5q126 16 257 -13.5t203 -102.5q-40 -207 -144.5 -767.5t-136.5 -725.5q-70 -10 -167.5 5t-183 57t-99.5 101zM195 1840l45 301q184 -6 329 -107l-67 -301q-85 3 -166.5 31t-140.5 76zM605 1840l45 301q184 -6 329 -107l-67 -301 q-85 3 -166.5 31t-140.5 76z" />
<glyph unicode="&#xf0;" horiz-adv-x="1422" d="M52 568q-10 102 28.5 222.5t98.5 177.5l156 1l40 175q-77 -45 -155 -112q-39 64 -42 191t32 223q233 165 541 183q186 10 332 -36t237 -138t137 -221t40.5 -287.5t-61.5 -333.5q-48 -151 -119.5 -269t-153.5 -191t-172.5 -120t-184 -61.5t-179.5 -9t-166 30.5 q-93 14 -167 67.5t-108 133.5q43 263 65 378q-130 -1 -199 -4zM666 367q87 -43 186 60.5t153 319.5q62 247 -11.5 366.5t-253.5 128.5q80 -37 126 -95q-23 -77 -51 -175h103q16 -24 16 -80t-13 -117t-41 -118t-64 -79h-102q-4 -19 -21.5 -94.5t-26.5 -116.5z" />
<glyph unicode="&#xf1;" horiz-adv-x="1432" d="M45 160q11 60 117.5 624t151.5 807q101 15 225 -20t197 -110q18 -505 156 -877q49 329 88 636.5t39 386.5q117 9 244.5 -40.5t198.5 -141.5q14 -196 -76 -686.5t-194 -784.5q-83 -8 -171.5 12t-153.5 63q-16 8 -25 16q-24 22 -35 36q-132 146 -235 488 q-64 -423 -100 -587q-68 -9 -161 9t-172.5 64t-93.5 105zM452 1862q-6 170 93.5 274.5t262.5 104.5q68 0 124 -19.5t90.5 -47.5t61.5 -55.5t51 -47t46 -19.5q19 0 28 12t6 30q48 35 152 45.5t164 -17.5q11 -169 -98 -280t-281 -111q-68 0 -121 19t-83 46.5t-52 55 t-40.5 46.5t-36.5 19q-32 0 -30 -42q-53 -27 -154 -34t-183 21z" />
<glyph unicode="&#xf2;" horiz-adv-x="1321" d="M64 545q0 78 8 144t22 144q84 450 290.5 648.5t526.5 137.5q139 -26 237.5 -91t151.5 -156.5t70.5 -211t2 -252.5t-60.5 -284q-43 -144 -99 -257t-121 -190t-137.5 -127t-152.5 -70.5t-163 -17.5t-171 28q-93 27 -163.5 70.5t-115.5 94.5t-73.5 117.5t-40 130.5 t-11.5 142zM594 815q-96 -402 8 -442q12 -3 25 -4.5t29 9t32 27t34.5 49t37 75t39.5 105t41 139.5q33 121 46 205.5t7.5 131.5t-20.5 69.5t-42 30.5q-29 10 -55.5 -1.5t-56.5 -51t-62 -126t-63 -216.5zM672 2157q60 53 150.5 80.5t193.5 26.5q7 -43 21.5 -91.5t41 -108 t70.5 -122.5t100 -117q-39 -57 -120 -85t-158 -25q-112 92 -193 213.5t-106 228.5z" />
<glyph unicode="&#xf3;" horiz-adv-x="1321" d="M64 545q0 78 8 144t22 144q84 450 290.5 648.5t526.5 137.5q139 -26 237.5 -91t151.5 -156.5t70.5 -211t2 -252.5t-60.5 -284q-43 -144 -99 -257t-121 -190t-137.5 -127t-152.5 -70.5t-163 -17.5t-171 28q-93 27 -163.5 70.5t-115.5 94.5t-73.5 117.5t-40 130.5 t-11.5 142zM594 815q-96 -402 8 -442q12 -3 25 -4.5t29 9t32 27t34.5 49t37 75t39.5 105t41 139.5q33 121 46 205.5t7.5 131.5t-20.5 69.5t-42 30.5q-29 10 -55.5 -1.5t-56.5 -51t-62 -126t-63 -216.5zM691 1825q56 54 100 117t70.5 122.5t41 108t21.5 91.5 q103 1 193.5 -26.5t150.5 -80.5q-25 -107 -106 -228.5t-193 -213.5q-77 -3 -158 25t-120 85z" />
<glyph unicode="&#xf4;" horiz-adv-x="1321" d="M64 545q0 78 8 144t22 144q84 450 290.5 648.5t526.5 137.5q139 -26 237.5 -91t151.5 -156.5t70.5 -211t2 -252.5t-60.5 -284q-43 -144 -99 -257t-121 -190t-137.5 -127t-152.5 -70.5t-163 -17.5t-171 28q-93 27 -163.5 70.5t-115.5 94.5t-73.5 117.5t-40 130.5 t-11.5 142zM547 1800q43 85 129 200t191 209q139 32 315 -27q56 -102 107 -238t78 -235q-63 -26 -150.5 -26t-150.5 30q-38 69 -79 185q-60 -77 -160 -189q-87 -3 -163.5 19t-116.5 72zM594 815q-96 -402 8 -442q12 -3 25 -4.5t29 9t32 27t34.5 49t37 75t39.5 105t41 139.5 q33 121 46 205.5t7.5 131.5t-20.5 69.5t-42 30.5q-29 10 -55.5 -1.5t-56.5 -51t-62 -126t-63 -216.5z" />
<glyph unicode="&#xf5;" horiz-adv-x="1321" d="M64 545q0 78 8 144t22 144q84 450 290.5 648.5t526.5 137.5q139 -26 237.5 -91t151.5 -156.5t70.5 -211t2 -252.5t-60.5 -284q-43 -144 -99 -257t-121 -190t-137.5 -127t-152.5 -70.5t-163 -17.5t-171 28q-93 27 -163.5 70.5t-115.5 94.5t-73.5 117.5t-40 130.5 t-11.5 142zM437 1862q-6 170 93.5 274.5t262.5 104.5q68 0 124 -19.5t90.5 -47.5t61.5 -55.5t51 -47t46 -19.5q19 0 28 12t6 30q48 35 152 45.5t164 -17.5q11 -169 -98 -280t-281 -111q-68 0 -121 19t-83 46.5t-52 55t-40.5 46.5t-36.5 19q-32 0 -30 -42q-53 -27 -154 -34 t-183 21zM594 815q-96 -402 8 -442q12 -3 25 -4.5t29 9t32 27t34.5 49t37 75t39.5 105t41 139.5q33 121 46 205.5t7.5 131.5t-20.5 69.5t-42 30.5q-29 10 -55.5 -1.5t-56.5 -51t-62 -126t-63 -216.5z" />
<glyph unicode="&#xf6;" horiz-adv-x="1321" d="M64 545q0 78 8 144t22 144q84 450 290.5 648.5t526.5 137.5q139 -26 237.5 -91t151.5 -156.5t70.5 -211t2 -252.5t-60.5 -284q-43 -144 -99 -257t-121 -190t-137.5 -127t-152.5 -70.5t-163 -17.5t-171 28q-93 27 -163.5 70.5t-115.5 94.5t-73.5 117.5t-40 130.5 t-11.5 142zM563 1840l45 301q184 -6 329 -107l-67 -301q-85 3 -166.5 31t-140.5 76zM594 815q-96 -402 8 -442q12 -3 25 -4.5t29 9t32 27t34.5 49t37 75t39.5 105t41 139.5q33 121 46 205.5t7.5 131.5t-20.5 69.5t-42 30.5q-29 10 -55.5 -1.5t-56.5 -51t-62 -126t-63 -216.5 zM972 1840l45 301q184 -6 329 -107l-67 -301q-85 3 -166.5 31t-140.5 76z" />
<glyph unicode="&#xf7;" horiz-adv-x="1368" d="M257 528v261h1014v-261h-1014zM580 191q0 84 55 142.5t134 58.5h4q69 0 125 -60t56 -141t-57 -144t-128 -63q-78 0 -133.5 62t-55.5 145zM584 1133q0 80 58.5 143t127.5 63q77 0 132.5 -62t55.5 -144q0 -84 -55 -143.5t-133 -59.5h-3q-69 0 -126 60.5t-57 142.5z" />
<glyph unicode="&#xf8;" horiz-adv-x="1480" d="M-64 53q60 60 210 234q-145 266 4 710q120 355 355.5 511.5t558.5 97.5q32 -5 71 -17q59 88 114 189q91 1 212 -45t149 -104q-44 -90 -159 -262q162 -262 22 -744q-51 -179 -130 -312t-172.5 -210.5t-202.5 -114t-220.5 -32t-227.5 44.5q-62 22 -91 36q-80 -92 -163 -173 q-65 -1 -140.5 30.5t-128.5 76.5t-61 84zM534 766q159 204 338 451q-56 -8 -107 -44.5t-90.5 -93t-70 -120.5t-54.5 -138zM710 369q56 4 109 39t94.5 92t74 121.5t56.5 137.5q10 27 22 67q-144 -192 -356 -457z" />
<glyph unicode="&#xf9;" horiz-adv-x="1287" d="M73.5 445q-3.5 86 5 173.5t29.5 200.5q95 516 156 770q111 25 246.5 0.5t229.5 -83.5q-121 -532 -179 -859q-31 -171 -29 -214q5 -50 41 -66q54 -23 104.5 38.5t91.5 219.5q19 73 53 243.5t77.5 395t63.5 320.5q109 17 243.5 -9t221.5 -81q-111 -536 -172 -870 q-31 -172 -89.5 -300.5t-135 -206t-172 -116.5t-199 -38t-218.5 36q-96 29 -165 71.5t-111.5 100t-65.5 123t-26.5 151.5zM653 2157q60 53 150.5 80.5t193.5 26.5q7 -43 21.5 -91.5t41 -108t70.5 -122.5t100 -117q-39 -57 -120 -85t-158 -25q-112 92 -193 213.5t-106 228.5z " />
<glyph unicode="&#xfa;" horiz-adv-x="1287" d="M73.5 445q-3.5 86 5 173.5t29.5 200.5q95 516 156 770q111 25 246.5 0.5t229.5 -83.5q-121 -532 -179 -859q-31 -171 -29 -214q5 -50 41 -66q54 -23 104.5 38.5t91.5 219.5q19 73 53 243.5t77.5 395t63.5 320.5q109 17 243.5 -9t221.5 -81q-111 -536 -172 -870 q-31 -172 -89.5 -300.5t-135 -206t-172 -116.5t-199 -38t-218.5 36q-96 29 -165 71.5t-111.5 100t-65.5 123t-26.5 151.5zM672 1825q56 54 100 117t70.5 122.5t41 108t21.5 91.5q103 1 193.5 -26.5t150.5 -80.5q-25 -107 -106 -228.5t-193 -213.5q-77 -3 -158 25t-120 85z " />
<glyph unicode="&#xfb;" horiz-adv-x="1287" d="M73.5 445q-3.5 86 5 173.5t29.5 200.5q95 516 156 770q111 25 246.5 0.5t229.5 -83.5q-121 -532 -179 -859q-31 -171 -29 -214q5 -50 41 -66q54 -23 104.5 38.5t91.5 219.5q19 73 53 243.5t77.5 395t63.5 320.5q109 17 243.5 -9t221.5 -81q-111 -536 -172 -870 q-31 -172 -89.5 -300.5t-135 -206t-172 -116.5t-199 -38t-218.5 36q-96 29 -165 71.5t-111.5 100t-65.5 123t-26.5 151.5zM528 1800q43 85 129 200t191 209q139 32 315 -27q56 -102 107 -238t78 -235q-63 -26 -150.5 -26t-150.5 30q-38 69 -79 185q-60 -77 -160 -189 q-87 -3 -163.5 19t-116.5 72z" />
<glyph unicode="&#xfc;" horiz-adv-x="1287" d="M73.5 445q-3.5 86 5 173.5t29.5 200.5q95 516 156 770q111 25 246.5 0.5t229.5 -83.5q-121 -532 -179 -859q-31 -171 -29 -214q5 -50 41 -66q54 -23 104.5 38.5t91.5 219.5q19 73 53 243.5t77.5 395t63.5 320.5q109 17 243.5 -9t221.5 -81q-111 -536 -172 -870 q-31 -172 -89.5 -300.5t-135 -206t-172 -116.5t-199 -38t-218.5 36q-96 29 -165 71.5t-111.5 100t-65.5 123t-26.5 151.5zM543 1840l45 301q186 -6 330 -107l-67 -301q-86 3 -167.5 31t-140.5 76zM953 1840l45 301q184 -6 329 -107l-67 -301q-85 3 -166.5 31t-140.5 76z" />
<glyph unicode="&#xfd;" horiz-adv-x="1246" d="M176 1567q108 37 241 36t260 -42q9 -276 45 -542q105 214 246 588q151 4 279 -31t199 -116q-80 -201 -240 -473.5t-361 -499.5q-19 -103 -47.5 -252.5t-47.5 -252.5q-72 -10 -168.5 9t-178.5 68t-97 112q12 68 38.5 196.5t45.5 231.5q-89 249 -142 511t-72 457zM625 1825 q106 102 162.5 221.5t71.5 217.5q103 1 193.5 -26.5t150.5 -80.5q-25 -107 -106 -228.5t-193 -213.5q-77 -3 -158.5 25t-120.5 85z" />
<glyph unicode="&#xfe;" horiz-adv-x="1365" d="M136 981q-6 123 32 215q129 66 248 102l55 293q126 16 257 -13.5t203 -102.5l-24 -130q117 -18 213 -65.5t166.5 -121t106 -180t27.5 -235.5q-6 -94 -34 -178.5t-71.5 -149t-100 -116t-121.5 -84t-133.5 -49t-138.5 -14t-134 23.5l-37 -194q-51 -7 -122 0.5t-140.5 26.5 t-122.5 55t-64 81l139 741q-78 -40 -157 -97q-41 69 -47 192zM748 505q80 -17 146 37.5t78 160.5q9 87 -29.5 150t-111.5 95z" />
<glyph unicode="&#xff;" horiz-adv-x="1246" d="M176 1567q108 37 241 36t260 -42q9 -276 45 -542q105 214 246 588q151 4 279 -31t199 -116q-80 -201 -240 -473.5t-361 -499.5q-19 -103 -47.5 -252.5t-47.5 -252.5q-72 -10 -168.5 9t-178.5 68t-97 112q12 68 38.5 196.5t45.5 231.5q-89 249 -142 511t-72 457zM497 1840 l45 301q184 -6 329 -107l-67 -301q-85 3 -166.5 31t-140.5 76zM907 1840l45 301q184 -6 329 -107l-67 -301q-85 3 -166.5 31t-140.5 76z" />
<glyph unicode="&#x152;" horiz-adv-x="1875" d="M64 545q0 78 8 144t22 144q84 450 290.5 648.5t526.5 137.5q195 -38 311 -149q41 73 87 111l637 4q15 -24 11.5 -85t-16.5 -126t-43 -126t-67 -85q-188 0 -411 -4l-36 -191l403 4q15 -23 11.5 -79.5t-15.5 -117.5t-40 -117.5t-62 -79.5q-110 0 -374 -6l-29 -153l508 3 q15 -24 11 -85t-17 -126t-43 -126t-67 -85q-91 0 -327.5 -4t-291.5 -7q-19 33 -31 92l-19 4q-223 -183 -533 -95q-93 27 -163.5 70.5t-115.5 94.5t-73.5 117.5t-40 130.5t-11.5 142zM594 815q-96 -402 8 -442q12 -3 25 -4.5t29 9t32 27t34.5 49t37 75t39.5 105t41 139.5 q33 121 46 205.5t7.5 131.5t-20.5 69.5t-42 30.5q-29 10 -55.5 -1.5t-56.5 -51t-62 -126t-63 -216.5z" />
<glyph unicode="&#x153;" horiz-adv-x="1875" d="M64 545q0 78 8 144t22 144q84 450 290.5 648.5t526.5 137.5q195 -38 311 -149q41 73 87 111l637 4q15 -24 11.5 -85t-16.5 -126t-43 -126t-67 -85q-188 0 -411 -4l-36 -191l403 4q15 -23 11.5 -79.5t-15.5 -117.5t-40 -117.5t-62 -79.5q-110 0 -374 -6l-29 -153l508 3 q15 -24 11 -85t-17 -126t-43 -126t-67 -85q-91 0 -327.5 -4t-291.5 -7q-19 33 -31 92l-19 4q-223 -183 -533 -95q-93 27 -163.5 70.5t-115.5 94.5t-73.5 117.5t-40 130.5t-11.5 142zM594 815q-96 -402 8 -442q12 -3 25 -4.5t29 9t32 27t34.5 49t37 75t39.5 105t41 139.5 q33 121 46 205.5t7.5 131.5t-20.5 69.5t-42 30.5q-29 10 -55.5 -1.5t-56.5 -51t-62 -126t-63 -216.5z" />
<glyph unicode="&#x178;" horiz-adv-x="1246" d="M176 1567q108 37 241 36t260 -42q9 -276 45 -542q105 214 246 588q151 4 279 -31t199 -116q-80 -201 -240 -473.5t-361 -499.5q-19 -103 -47.5 -252.5t-47.5 -252.5q-72 -10 -168.5 9t-178.5 68t-97 112q12 68 38.5 196.5t45.5 231.5q-89 249 -142 511t-72 457zM497 1840 l45 301q184 -6 329 -107l-67 -301q-85 3 -166.5 31t-140.5 76zM907 1840l45 301q184 -6 329 -107l-67 -301q-85 3 -166.5 31t-140.5 76z" />
<glyph unicode="&#x2c6;" horiz-adv-x="846" d="M139 1208q43 85 129 200.5t191 209.5q139 32 315 -27q56 -102 106.5 -237t77.5 -236q-63 -26 -150 -26t-150 30q-38 69 -79 185q-60 -77 -160 -189q-87 -3 -163.5 18.5t-116.5 71.5z" />
<glyph unicode="&#x2dc;" horiz-adv-x="1067" d="M176 1353q-6 170 93.5 274t262.5 104q68 0 124 -19.5t90.5 -47t61.5 -55t51 -47t46 -19.5q19 0 28 12t6 30q48 35 152 45t164 -18q11 -169 -97.5 -279.5t-280.5 -110.5q-68 0 -121 19t-83 46.5t-52.5 55t-41 46.5t-36.5 19q-32 0 -30 -43q-53 -27 -154 -33.5t-183 21.5z " />
<glyph unicode="&#x2000;" horiz-adv-x="1132" />
<glyph unicode="&#x2001;" horiz-adv-x="2264" />
<glyph unicode="&#x2002;" horiz-adv-x="1132" />
<glyph unicode="&#x2003;" horiz-adv-x="2264" />
<glyph unicode="&#x2004;" horiz-adv-x="754" />
<glyph unicode="&#x2005;" horiz-adv-x="566" />
<glyph unicode="&#x2006;" horiz-adv-x="377" />
<glyph unicode="&#x2007;" horiz-adv-x="377" />
<glyph unicode="&#x2008;" horiz-adv-x="283" />
<glyph unicode="&#x2009;" horiz-adv-x="452" />
<glyph unicode="&#x200a;" horiz-adv-x="125" />
<glyph unicode="&#x2010;" horiz-adv-x="673" d="M52 568q-10 102 28.5 222.5t98.5 177.5l534 4q16 -24 16 -80t-12.5 -117t-40.5 -118t-64 -79q-80 0 -292.5 -3.5t-267.5 -6.5z" />
<glyph unicode="&#x2011;" horiz-adv-x="673" d="M52 568q-10 102 28.5 222.5t98.5 177.5l534 4q16 -24 16 -80t-12.5 -117t-40.5 -118t-64 -79q-80 0 -292.5 -3.5t-267.5 -6.5z" />
<glyph unicode="&#x2012;" horiz-adv-x="673" d="M52 568q-10 102 28.5 222.5t98.5 177.5l534 4q16 -24 16 -80t-12.5 -117t-40.5 -118t-64 -79q-80 0 -292.5 -3.5t-267.5 -6.5z" />
<glyph unicode="&#x2013;" horiz-adv-x="883" d="M70 614q-17 92 12 219t86 181l767 5q28 -53 -2 -201.5t-93 -193.5q-93 0 -405 -3.5t-365 -6.5z" />
<glyph unicode="&#x2014;" horiz-adv-x="1015" d="M53 614q0 117 40.5 230t100.5 170l875 5q28 -54 -4.5 -202t-99.5 -193q-102 0 -481 -3.5t-431 -6.5z" />
<glyph unicode="&#x2018;" horiz-adv-x="569" d="M162 1315q9 94 50.5 178t111.5 150.5t176.5 105t235.5 38.5q14 -38 8 -86t-31 -89q-66 -6 -123 -45t-88 -101q65 -14 113 -60.5t65 -117.5q20 -85 -12 -161t-106.5 -118.5t-168.5 -29.5q-116 15 -180.5 104.5t-50.5 231.5z" />
<glyph unicode="&#x2019;" horiz-adv-x="569" d="M161.5 1107.5q6.5 47.5 31.5 88.5q66 6 122.5 45t87.5 101q-65 14 -113 61t-65 118q-20 85 12 161t106.5 118.5t168.5 29.5q116 -15 180.5 -104.5t50.5 -231.5q-9 -94 -50.5 -178t-111.5 -150.5t-176.5 -105.5t-235.5 -39q-14 39 -7.5 86.5z" />
<glyph unicode="&#x201a;" horiz-adv-x="569" d="M-79 -253q6 48 31 89q66 6 122.5 45t87.5 101q-65 14 -112.5 61t-64.5 118q-20 85 12 161t106.5 118.5t168.5 29.5q115 -15 179.5 -104.5t50.5 -231.5q-9 -94 -50 -178t-111 -150.5t-176.5 -105.5t-235.5 -39q-14 38 -8 86z" />
<glyph unicode="&#x201c;" horiz-adv-x="1127" d="M167 1346q9 94 50 178t111 150.5t176.5 105.5t235.5 39q14 -38 8 -86t-31 -89q-66 -6 -122.5 -45t-87.5 -101q65 -14 112.5 -61t64.5 -118q20 -85 -12 -161t-106.5 -118.5t-168.5 -29.5q-115 15 -179.5 104.5t-50.5 231.5zM725 1346q9 94 50 178t111 150.5t176.5 105.5 t235.5 39q14 -38 8 -86t-31 -89q-66 -6 -122.5 -45t-87.5 -101q65 -14 112.5 -61t64.5 -118q20 -85 -11.5 -161t-106 -118.5t-168.5 -29.5q-116 15 -180.5 104.5t-50.5 231.5z" />
<glyph unicode="&#x201d;" horiz-adv-x="1126" d="M161.5 1107.5q6.5 47.5 31.5 88.5q66 6 122.5 45t87.5 101q-65 14 -113 61t-65 118q-20 85 12 161t106.5 118.5t168.5 29.5q116 -15 180.5 -104.5t50.5 -231.5q-9 -94 -50.5 -178t-111.5 -150.5t-176.5 -105.5t-235.5 -39q-14 39 -7.5 86.5zM720 1107q6 48 31 89 q66 6 122.5 45t87.5 101q-65 14 -112.5 61t-64.5 118q-20 85 11.5 161t106 118.5t168.5 29.5q116 -15 180.5 -104.5t50.5 -231.5q-9 -94 -50 -178t-111 -150.5t-176.5 -105.5t-235.5 -39q-14 38 -8 86z" />
<glyph unicode="&#x201e;" horiz-adv-x="1156" d="M-79 -253q6 48 31 89q66 6 122.5 45t87.5 101q-65 14 -112.5 61t-64.5 118q-20 85 12 161t106.5 118.5t168.5 29.5q115 -15 179.5 -104.5t50.5 -231.5q-9 -94 -50 -178t-111 -150.5t-176.5 -105.5t-235.5 -39q-14 38 -8 86zM508 -253q6 48 31 89q66 6 123 45t88 101 q-65 14 -113 61t-65 118q-20 85 12 161t106.5 118.5t168.5 29.5q116 -15 180.5 -104.5t50.5 -231.5q-9 -94 -50.5 -178t-111.5 -150.5t-176.5 -105.5t-235.5 -39q-14 38 -8 86z" />
<glyph unicode="&#x2022;" horiz-adv-x="542" d="M130.5 957.5q17.5 67.5 69.5 123.5t121 77q84 25 154.5 -14.5t97.5 -122.5q34 -104 -22.5 -206.5t-162.5 -135.5q-84 -26 -157.5 14.5t-99.5 125.5q-18 71 -0.5 138.5z" />
<glyph unicode="&#x2026;" horiz-adv-x="819" d="M7.5 260.5q17.5 67.5 69.5 123t121 76.5q84 25 155 -14t98 -122q34 -104 -23 -207t-163 -136q-84 -26 -157.5 15t-99.5 126q-18 71 -0.5 138.5z" />
<glyph unicode="&#x202f;" horiz-adv-x="452" />
<glyph unicode="&#x2039;" horiz-adv-x="664" d="M35 547q-2 24 3 44q35 107 134.5 259t183.5 214q130 -19 207 -55t122 -100q-49 -51 -118.5 -177.5t-96.5 -205.5q0 -73 39 -225.5t77 -218.5q-60 -52 -143.5 -68t-213.5 -2q-67 81 -126.5 251.5t-67.5 283.5z" />
<glyph unicode="&#x203a;" horiz-adv-x="664" d="M3 123q48 51 118 178t97 206q0 73 -39 225t-77 218q60 52 143.5 68t213.5 2q67 -81 126.5 -251.5t67.5 -283.5q2 -24 -3 -44q-35 -107 -134.5 -258t-183.5 -214q-130 19 -207 54.5t-122 99.5z" />
<glyph unicode="&#x205f;" horiz-adv-x="566" />
<glyph unicode="&#x20ac;" horiz-adv-x="1493" d="M41 557q-5 47 13 101.5t46 80.5h127q2 18 11 76l-148 -1q-5 45 12.5 100.5t44.5 80.5h132q97 328 309.5 484t502.5 102q132 -24 225.5 -84t144 -142.5t71 -191t13 -223.5t-37.5 -246q-96 -21 -251.5 16t-205.5 97q16 51 27 111t14.5 126t-19 109t-71.5 43 q-106 0 -206 -201h166q16 -19 1.5 -88.5t-46.5 -90.5h-195q-1 -3 -3 -8.5t-3 -7.5q-13 -42 -17 -60h215q8 -18 7 -52t-16.5 -74t-37.5 -54h-194q-6 -179 91 -200q77 -17 135 36.5t106 160.5q49 8 136.5 -18t167 -71t104.5 -86q-63 -151 -151 -249t-191 -138.5t-215 -38.5 t-234 44q-386 134 -403 558z" />
<glyph unicode="&#x2122;" horiz-adv-x="1403" d="M128 1348q1 66 23.5 135t60.5 102l128 2l1 4q50 7 103 -4l316 2q11 -33 -9 -121.5t-56 -113.5q-66 -2 -141 -2q-52 -295 -90 -485q-63 -9 -146 19.5t-94 77.5q14 39 75 385q-138 0 -171 -1zM695 956q8 23 54 268.5t65 366.5q46 6 97 0q88 -5 148 -33q5 -68 28.5 -207.5 t26.5 -161.5q13 34 37.5 102.5t39.5 109.5t36 95.5t39 96.5q56 6 110 0q118 -2 182 -64q-16 -105 -57 -327.5t-65 -334.5q-64 -9 -139.5 15.5t-86.5 73.5q10 53 42 224q-67 -169 -115 -305q-54 -8 -133 18q-6 39 -19 112t-17 95q-28 -147 -46 -233q-62 -10 -139 15t-88 74z " />
<glyph unicode="&#x25fc;" horiz-adv-x="1611" d="M0 0v1611h1611v-1611h-1611z" />
</font>
</defs>
</svg>
